# 3ds Max Wavefront OBJ Exporter v0.97b - (c)2007 guruware
# File Created: 16.07.2017 21:57:13

mtllib cry_wall.mtl

#
# object Mesh01
#

v  1.6645 200.4682 -5.4448
v  -18.8390 155.2142 35.9579
v  44.2719 176.5512 -8.9160
v  13.8272 104.6492 39.9426
v  64.4333 109.4302 -13.2297
v  -22.0848 144.6272 71.6300
v  -25.4537 0.2599 85.5444
v  41.3881 0.2599 104.6173
v  71.6957 0.2599 88.5290
v  82.2092 119.4322 -9.8719
v  83.5569 0.1433 91.3379
v  127.7277 0.1433 23.3747
v  13.0702 154.0582 -57.8156
v  28.0294 166.0702 -80.2919
v  25.6807 96.3412 -75.5422
v  94.7723 0.1433 -44.6873
v  82.9111 0.2599 -47.4962
v  46.1194 0.2599 -86.4403
v  11.3609 0.2599 -127.5927
v  -33.4355 193.2982 -23.2633
v  -14.3422 113.5732 -28.0513
v  -66.2835 95.7918 -1.7744
v  -41.3218 0.2599 -79.8519
v  -75.7946 0.2599 -58.8307
v  -83.6365 0.2599 -0.4666
v  -47.8318 104.6492 52.9623
v  -110.6883 0.2599 52.3195
v  -79.0314 0.2599 73.7453
v  -59.5492 149.1072 -49.8739
v  -11.0685 151.9082 58.9005
v  115.8667 0.2599 20.5659
# 31 vertices

vn 0.4848 0.8193 0.3062
vn 0.6797 0.5353 0.5014
vn 0.7221 0.6642 0.1935
vn 0.6984 0.4471 0.5589
vn 0.7334 0.6794 0.0255
vn 0.6478 0.2505 0.7195
vn -0.2731 0.0986 0.9569
vn 0.2209 0.4237 0.8785
vn 0.1803 0.3597 0.9155
vn 0.2484 0.9619 -0.1141
vn 0.2829 -0.3337 0.8992
vn 0.8788 -0.4642 0.1103
vn -0.6788 0.6103 -0.4084
vn -0.0116 0.6666 -0.7454
vn -0.5048 0.0041 -0.8632
vn 0.5184 -0.5170 -0.6811
vn 0.5523 -0.0464 -0.8324
vn 0.7081 0.1632 -0.6870
vn 0.7436 0.2294 -0.6281
vn -0.2040 0.9789 0.0080
vn -0.6101 0.1165 -0.7837
vn -0.6108 0.7167 -0.3366
vn -0.6619 0.3261 -0.6749
vn -0.4095 0.2619 -0.8739
vn -0.9313 0.3626 0.0351
vn -0.6002 0.4483 -0.6624
vn -0.5362 0.4539 -0.7116
vn -0.2684 0.3854 -0.8828
vn -0.9832 0.1552 -0.0960
vn -0.9388 0.1664 -0.3017
vn -0.6666 0.5793 0.4691
vn -0.8330 0.4277 0.3509
vn -0.8932 0.3616 0.2671
vn -0.4416 0.2402 0.8645
vn -0.8077 0.5895 -0.0097
vn -0.2140 0.0987 0.9718
vn 0.1531 0.6512 0.7433
vn 0.4387 0.0062 -0.8986
vn -0.9938 0.1095 -0.0177
vn 0.7213 0.1054 0.6845
vn 0.8293 0.5195 -0.2060
vn -0.7630 0.5511 0.3378
vn -0.7376 0.6101 -0.2893
vn -0.0099 -1.0000 0.0004
# 44 vertex normals

vt 0.5759 0.9995 0.0000
vt 0.3504 0.7553 0.0000
vt 0.6160 0.7897 0.0000
vt 0.3609 0.5258 0.0000
vt 0.5578 0.4359 0.0000
vt 0.2282 0.4449 0.0000
vt 0.0005 0.1977 0.0000
vt 0.0884 0.0925 0.0000
vt 0.2734 0.0005 0.0000
vt 0.5420 0.0005 0.0000
vt 0.7432 0.7554 0.0000
vt 0.7367 0.5430 0.0000
vt 0.8059 0.5424 0.0000
vt 0.7861 0.0384 0.0000
vt 0.8746 0.1624 0.0000
vt 0.9995 0.2339 0.0000
vt 0.4138 0.9995 0.0000
vt 0.2476 0.6865 0.0000
vt 0.3734 0.7794 0.0000
vt 0.1878 0.4320 0.0000
vt 0.3508 0.4645 0.0000
vt 0.4533 0.3874 0.0000
vt 0.0005 0.0770 0.0000
vt 0.1370 0.0352 0.0000
vt 0.2476 0.0005 0.0000
vt 0.4737 0.0005 0.0000
vt 0.6423 0.7194 0.0000
vt 0.7067 0.4659 0.0000
vt 0.7475 0.0114 0.0000
vt 0.8129 0.0345 0.0000
vt 0.7655 0.3326 0.0000
vt 0.9995 0.0759 0.0000
# 32 texture coords

g Mesh01
usemtl Material__25
s 1
f 1/1/1 2/2/2 3/3/3 
f 3/3/3 4/4/4 5/5/5 
f 6/6/6 7/7/7 8/8/8 
f 6/6/6 8/8/8 4/4/4 
f 4/4/4 8/8/8 9/9/9 
f 4/4/4 9/9/9 5/5/5 
f 10/5/10 11/9/11 12/10/12 
f 1/1/1 3/3/3 13/11/13 
f 3/3/3 5/5/5 14/12/14 
f 3/3/3 14/12/14 13/11/13 
f 13/11/13 14/12/14 15/13/15 
f 10/5/10 12/10/12 16/14/16 
f 5/5/5 17/14/17 14/12/14 
f 14/12/14 17/14/17 18/15/18 
f 14/12/14 18/15/18 15/13/15 
f 15/13/15 18/15/18 19/16/19 
f 1/17/20 13/18/21 20/19/22 
f 13/18/21 15/20/23 21/21/24 
f 13/18/21 21/21/24 20/19/22 
f 20/19/22 21/21/24 22/22/25 
f 15/20/23 19/23/26 23/24/27 
f 15/20/23 23/24/27 21/21/24 
f 21/21/24 23/24/27 24/25/28 
f 22/22/25 24/25/29 25/26/30 
f 1/17/20 20/19/22 2/27/31 
f 20/19/22 22/22/25 26/28/32 
f 20/19/22 26/28/32 2/27/31 
f 22/22/25 25/26/30 27/29/33 
f 22/22/25 27/29/33 26/28/32 
f 26/28/32 27/29/33 28/30/34 
f 26/28/32 28/30/34 6/31/35 
f 6/31/35 28/30/34 7/32/36 
f 22/22/25 21/21/24 29/21/37 
f 21/21/24 24/25/28 29/25/38 
f 24/25/29 22/22/25 29/22/39 
f 6/6/6 4/4/4 30/4/40 
f 4/4/4 2/2/2 30/2/41 
f 2/27/31 26/28/32 30/28/42 
f 26/28/32 6/31/35 30/31/43 
f 5/5/5 9/9/9 11/9/11 
f 11/9/11 10/5/10 5/5/5 
f 9/9/9 31/10/44 12/10/12 
f 12/10/12 11/9/11 9/9/9 
f 31/10/44 17/14/17 16/14/16 
f 16/14/16 12/10/12 31/10/44 
f 17/14/17 5/5/5 10/5/10 
f 10/5/10 16/14/16 17/14/17 
f 2/2/2 4/4/4 3/3/3 
# 0 polygons - 48 triangles

