# 3ds Max Wavefront OBJ Exporter v0.97b - (c)2007 guruware
# File Created: 30.07.2017 16:42:24

mtllib emerald_wall.mtl

#
# object Mesh01
#

v  38.9234 78.1538 17.2635
v  39.5171 77.5796 26.7151
v  46.7601 70.3552 24.2659
v  49.4679 66.5414 17.2752
v  49.3214 65.5464 27.2534
v  35.8296 74.5297 35.4700
v  55.8134 56.2148 16.7672
v  48.3935 64.7513 8.2527
v  40.7895 70.5747 3.9539
v  51.7715 57.1403 3.2334
v  40.3941 60.1672 -9.2753
v  30.6644 74.3800 1.0962
v  26.2658 79.1031 6.8359
v  25.0593 70.5747 -6.5224
v  11.2233 77.7642 0.3574
v  19.2173 64.7513 -12.1834
v  8.6757 65.8400 -9.2600
v  24.8795 57.1403 -16.6860
v  8.9927 55.1627 -14.5971
v  0.2966 67.5495 -0.1306
v  -0.6344 74.0723 9.4990
v  -3.5015 61.3376 1.3931
v  -9.7898 68.2166 21.5790
v  23.4882 82.7900 16.4385
v  29.8819 82.6141 17.4574
v  24.8686 82.0859 11.1347
v  18.6336 82.6141 10.3010
v  21.7109 82.6141 21.2791
v  27.9459 82.0859 22.1128
v  29.7040 80.5041 24.5619
v  16.9071 79.1919 28.0706
v  26.2712 78.7486 33.0271
v  32.1082 79.9842 28.0876
v  9.1495 73.0857 37.5174
v  18.2896 75.0310 38.0491
v  18.8721 72.5601 42.1956
v  3.0442 67.7847 43.7004
v  16.6976 82.0859 14.9563
v  11.3219 79.8025 14.6262
v  3.5726 77.1782 16.9707
v  1.8500 75.2414 26.2874
v  1.0023 72.2252 34.0886
v  -7.0588 68.3512 36.2549
v  -23.1372 35.5597 -41.2409
v  -16.4650 29.3364 -42.0307
v  -22.1374 30.3186 -46.3545
v  -28.1183 33.6457 -47.3979
v  -19.8439 25.1343 -47.8935
v  -7.8781 20.2670 -39.5596
v  -31.8631 28.1703 -53.2245
v  -33.4742 35.2490 -46.3229
v  -33.6213 36.8123 -42.5950
v  -39.0251 33.6457 -48.5535
v  -44.5428 35.5598 -43.0098
v  -45.5828 30.3186 -50.8344
v  -51.6332 29.3364 -48.7506
v  -44.9700 25.1343 -54.7750
v  -55.4929 20.2670 -52.3065
v  -35.2706 42.1458 -36.3049
v  -29.3250 39.4389 -39.1085
v  -34.0704 38.5364 -40.0905
v  -39.4158 39.4389 -39.1796
v  4.0537 7.8495 -31.9090
v  2.8411 3.1524 -36.9570
v  -5.1247 8.7114 -43.5569
v  9.0370 -6.2419 -34.3608
v  17.6580 -6.2419 -21.6687
v  -1.2484 -6.2419 -45.8734
v  -14.2056 15.9940 -48.0681
v  -17.0852 12.1588 -51.2854
v  -21.0691 6.5997 -55.0186
v  -31.4505 12.1588 -57.7095
v  -14.8626 -6.2420 -55.0269
v  -27.8228 -6.2420 -58.5968
v  -41.1096 15.9940 -57.8166
v  -43.7388 8.7114 -57.5797
v  -43.9990 3.1524 -54.0547
v  -50.9278 7.8495 -49.5817
v  -36.1459 -6.2420 -53.3587
v  -42.1504 -6.2419 -43.7166
v  -64.7619 12.1588 -35.1996
v  -63.7766 6.5997 -25.4945
v  -61.2589 12.1588 -22.2777
v  -61.4746 28.1702 -37.4916
v  -63.1954 -6.2419 -29.5023
v  -63.5356 -6.2419 -17.6365
v  -57.4621 -6.2419 -4.2110
v  -61.7731 8.7114 -43.2658
v  -63.7441 15.9940 -42.6877
v  -60.8875 25.1343 -46.3956
v  -55.8417 30.3186 -46.2372
v  -53.8627 33.6456 -41.2828
v  -56.3747 3.1524 -43.5231
v  -54.7094 -6.2419 -37.5612
v  -42.1266 38.5364 -33.9940
v  -41.4093 39.4389 -29.9638
v  -46.2563 36.8122 -33.8251
v  -46.0113 35.5597 -23.5724
v  -51.7893 35.2489 -35.6292
v  -54.1772 33.6456 -31.3965
v  -53.1126 30.3186 -25.1237
v  -47.5396 29.3364 -17.0803
v  -55.5250 25.1343 -23.8527
v  -45.7932 20.2670 -8.2413
v  -57.1975 15.9941 -18.5385
v  -52.8783 8.7114 -7.6930
v  -46.9817 3.1525 2.1717
v  -40.5712 7.8496 5.1911
v  -46.7071 -6.2419 8.5266
v  -33.6114 -6.2420 20.9203
v  -29.0371 3.1525 12.1830
v  -27.0583 8.7114 6.7132
v  -19.7901 -6.2420 23.5435
v  -6.7157 -6.2420 23.4053
v  -25.6960 15.9941 -0.9589
v  -34.0927 25.1343 -11.8894
v  -14.9681 12.1588 3.0909
v  -22.5117 28.1702 -17.1952
v  -39.5557 30.3186 -17.5553
v  -35.5493 33.6456 -21.9242
v  -31.5052 35.2489 -28.0134
v  -34.4580 36.8122 -31.8737
v  -24.3280 33.6456 -30.6549
v  -35.3994 38.5364 -33.9466
v  -4.6194 6.5998 5.6612
v  -4.5805 12.1588 -5.1581
v  4.8650 -6.2420 17.7445
v  13.2352 -6.2419 7.5540
v  -5.8133 15.9941 -17.1108
v  -14.4478 25.1343 -27.9886
v  2.0676 8.7114 -17.0257
v  -18.8394 30.3186 -34.1889
v  7.9354 3.1524 -18.1652
v  16.6784 -6.2419 -6.1732
v  62.4861 22.0800 18.2911
v  61.4540 12.4113 5.0123
v  59.0588 23.0890 -0.8170
v  59.1046 45.3483 14.5267
v  63.8919 -6.9263 18.2911
v  61.6409 -6.9263 -1.6271
v  55.3635 -6.9263 -19.2153
v  54.3110 35.7847 -5.0261
v  49.4183 27.1249 -15.9415
v  41.5097 16.4471 -25.3704
v  32.6985 27.1249 -26.3269
v  41.0332 -6.9263 -32.1435
v  22.0251 -6.8409 -40.1951
v  24.1452 35.7847 -25.3713
v  14.4232 23.1460 -31.4031
v  8.3741 45.4338 -23.0846
v  3.5749 12.6393 -35.9517
v  -5.9758 22.4222 -32.5567
v  1.7142 -6.5842 -43.1537
v  -19.2480 -6.2420 -43.5656
v  -18.3701 12.8675 -22.9116
v  -17.7382 24.1307 -12.0898
v  1.2788 46.4832 -18.5648
v  -31.2033 -6.2420 -23.5935
v  -40.1697 -6.2419 -3.8702
v  -16.7205 38.8110 -0.2784
v  -26.9293 30.9648 9.6957
v  -33.5388 19.7016 18.3484
v  -27.5222 32.1338 28.1573
v  -43.1585 -6.2419 15.3556
v  -38.9688 -6.2419 31.7051
v  -19.0920 43.4869 35.6141
v  -19.9020 29.9754 40.6785
v  -2.8562 57.0036 45.5818
v  -17.5393 17.5433 44.5916
v  -4.7297 29.4359 49.7211
v  -26.3999 -6.2419 42.7995
v  -9.6412 -6.2419 51.2665
v  6.3632 17.5433 53.2544
v  14.2979 30.6769 52.4972
v  3.6265 58.0558 47.0670
v  9.4539 -6.2419 55.7939
v  27.8829 -6.2419 57.6708
v  22.0978 46.2926 48.2375
v  32.6791 35.6411 48.2527
v  42.5072 22.5074 48.2364
v  48.7077 34.4721 41.7127
v  44.9795 -6.2419 54.2469
v  57.6126 -6.3274 45.9559
v  53.3509 41.6169 34.2264
v  59.4922 24.7752 32.2354
v  58.4920 47.4498 20.5317
v  62.1274 12.6393 28.2516
v  62.6509 -6.5841 33.2318
# 188 vertices

vn 0.5416 0.8266 -0.1532
vn 0.5594 0.7899 0.2513
vn 0.7608 0.6275 0.1655
vn 0.8040 0.5862 -0.1003
vn 0.8039 0.5573 0.2079
vn 0.3856 0.7595 0.5239
vn 0.8462 0.5194 -0.1188
vn 0.7471 0.5889 -0.3082
vn 0.5649 0.6994 -0.4379
vn 0.7448 0.5649 -0.3553
vn 0.4534 0.6410 -0.6193
vn 0.3256 0.7909 -0.5181
vn 0.2698 0.8326 -0.4837
vn 0.1906 0.7042 -0.6839
vn -0.2512 0.8269 -0.5031
vn -0.0166 0.5610 -0.8276
vn -0.4182 0.5002 -0.7582
vn 0.0868 0.5543 -0.8278
vn -0.3842 0.3902 -0.8367
vn -0.6931 0.4668 -0.5492
vn -0.6316 0.7235 -0.2787
vn -0.7798 0.3494 -0.5194
vn -0.6265 0.7786 -0.0356
vn 0.0024 0.9999 -0.0128
vn 0.2985 0.9536 -0.0399
vn 0.2157 0.9149 -0.3412
vn -0.1157 0.9646 -0.2369
vn -0.1039 0.9679 0.2287
vn 0.1768 0.9342 0.3100
vn 0.1677 0.9596 0.2259
vn -0.2054 0.9302 0.3043
vn 0.0388 0.8817 0.4701
vn 0.1970 0.9488 0.2468
vn -0.2354 0.8651 0.4429
vn -0.0965 0.8654 0.4917
vn -0.0704 0.8525 0.5179
vn -0.2599 0.8434 0.4702
vn -0.3086 0.9496 0.0550
vn -0.3518 0.9360 0.0079
vn -0.4116 0.9112 0.0158
vn -0.4204 0.8841 0.2040
vn -0.3522 0.8768 0.3273
vn -0.3720 0.9003 0.2258
vn 0.3528 0.7430 -0.5688
vn 0.5885 0.4544 -0.6688
vn 0.5094 0.5388 -0.6710
vn 0.2773 0.7253 -0.6301
vn 0.5370 0.3915 -0.7473
vn 0.6612 0.3931 -0.6389
vn 0.2058 0.4801 -0.8527
vn 0.0504 0.8504 -0.5237
vn 0.0461 0.8784 -0.4756
vn -0.0762 0.7844 -0.6156
vn -0.1642 0.8382 -0.5200
vn -0.2390 0.6774 -0.6957
vn -0.3458 0.6008 -0.7207
vn -0.2023 0.4203 -0.8846
vn -0.4591 0.1432 -0.8767
vn 0.0049 0.7245 -0.6892
vn 0.0487 0.6070 -0.7932
vn 0.0241 0.7539 -0.6565
vn 0.0001 0.7107 -0.7035
vn 0.7594 0.3752 -0.5316
vn 0.7421 0.3384 -0.5787
vn 0.6693 0.3243 -0.6685
vn 0.7533 0.3415 -0.5620
vn 0.7706 0.3636 -0.5234
vn 0.6431 0.2715 -0.7160
vn 0.5671 0.3352 -0.7523
vn 0.4895 0.2650 -0.8308
vn 0.3974 0.1937 -0.8970
vn 0.1995 0.1713 -0.9648
vn 0.4430 0.2147 -0.8705
vn 0.0212 -0.0585 -0.9981
vn -0.1004 0.1656 -0.9811
vn -0.4043 -0.1949 -0.8936
vn -0.6138 -0.5064 -0.6056
vn -0.6796 -0.4526 -0.5774
vn -0.5636 -0.5188 -0.6428
vn -0.6795 -0.5994 -0.4231
vn -0.9988 0.0492 0.0056
vn -0.9716 0.1061 0.2113
vn -0.8642 0.3019 0.4026
vn -0.8454 0.5308 0.0589
vn -0.9418 -0.2256 -0.2491
vn -0.9525 0.1457 0.2673
vn -0.7753 0.3279 0.5397
vn -0.6098 0.0266 -0.7921
vn -0.7195 -0.3289 -0.6117
vn -0.9271 0.0043 -0.3748
vn -0.7767 0.3595 -0.5173
vn -0.2780 0.6405 -0.7159
vn -0.4683 0.6921 -0.5493
vn -0.4382 0.8654 -0.2429
vn -0.3169 0.9080 -0.2741
vn -0.4743 -0.4363 -0.7647
vn -0.4804 -0.4963 -0.7231
vn -0.3694 -0.5437 -0.7536
vn -0.4988 -0.5257 -0.6891
vn -0.4910 0.8647 -0.1062
vn -0.5127 0.8501 -0.1201
vn -0.4823 0.8722 -0.0815
vn -0.6195 0.7823 -0.0649
vn -0.3269 0.9449 -0.0147
vn -0.5269 0.7911 0.3107
vn -0.3887 0.9208 -0.0324
vn -0.5958 0.7664 0.2401
vn -0.6800 0.5527 0.4818
vn -0.6938 0.4775 0.5390
vn -0.7460 0.4418 0.4982
vn -0.6749 0.4401 0.5923
vn -0.7512 0.4081 0.5188
vn -0.7050 0.3965 0.5880
vn -0.6587 0.4071 0.6328
vn -0.6233 0.4313 0.6524
vn -0.6529 0.4112 0.6361
vn -0.6218 0.4263 0.6570
vn -0.1384 0.7012 0.6994
vn -0.0963 0.7149 0.6926
vn -0.0680 0.7220 0.6886
vn -0.0832 0.7127 0.6965
vn -0.1315 0.7087 0.6931
vn -0.0336 0.7566 0.6530
vn 0.1489 0.7643 0.6274
vn -0.0130 0.7594 0.6505
vn 0.0004 0.7534 0.6576
vn 0.1590 0.7828 0.6016
vn 0.3397 0.8375 0.4281
vn 0.1101 0.8105 0.5753
vn -0.0453 0.7084 0.7043
vn 0.0074 0.7408 0.6717
vn 0.1229 0.8608 0.4939
vn 0.2240 0.9297 0.2925
vn 0.2803 0.8841 0.3740
vn 0.4440 0.8630 0.2412
vn 0.5426 0.7965 0.2669
vn 0.5398 0.4469 0.7134
vn 0.5310 0.4923 0.6897
vn 0.4835 0.6111 0.6267
vn 0.5348 0.4588 0.7095
vn 0.3889 0.7786 0.4924
vn 0.5482 0.7824 0.2956
vn 0.3976 0.7672 0.5033
vn 0.5767 0.7631 0.2917
vn 0.6343 0.7598 0.1427
vn 0.6381 0.7545 0.1534
vn 0.6835 0.7230 0.1006
vn 0.6914 0.7174 0.0854
vn 0.6490 0.7421 0.1673
vn 0.6956 0.7080 0.1219
vn 0.6940 0.7161 0.0752
vn 0.7065 0.7065 0.0419
vn 0.6430 0.7559 0.1233
vn 0.7024 0.7104 0.0444
vn 0.9848 0.0947 -0.1455
vn 0.9780 0.0747 -0.1949
vn 0.9352 0.1467 -0.3222
vn 0.9361 0.2015 -0.2883
vn 0.9925 0.0481 -0.1122
vn 0.9644 0.0942 -0.2471
vn 0.8056 0.1655 -0.5689
vn 0.8407 0.2594 -0.4753
vn 0.8205 0.2884 -0.4935
vn 0.6946 0.2552 -0.6726
vn 0.5686 0.3389 -0.7495
vn 0.5200 0.2388 -0.8201
vn 0.3451 0.3152 -0.8840
vn 0.5096 0.2299 -0.8291
vn 0.2360 0.2954 -0.9258
vn 0.1942 0.3614 -0.9120
vn 0.2725 0.3544 -0.8945
vn 0.1049 0.3369 -0.9357
vn 0.0785 0.3683 -0.9264
vn 0.0639 0.3384 -0.9388
vn 0.0325 0.3558 -0.9340
vn 0.0782 0.3431 -0.9360
vn 0.0241 0.3487 -0.9369
vn -0.7381 0.4981 -0.4551
vn -0.7520 0.4950 -0.4354
vn -0.7507 0.4621 -0.4722
vn -0.7266 0.4720 -0.4993
vn -0.7375 0.5110 -0.4415
vn -0.7580 0.5230 -0.3897
vn -0.8456 0.4380 -0.3052
vn -0.7540 0.4661 -0.4629
vn -0.7555 0.4767 -0.4495
vn -0.8486 0.4476 -0.2818
vn -0.8779 0.4732 -0.0736
vn -0.9308 0.3653 0.0074
vn -0.8922 0.3772 0.2485
vn -0.9383 0.3443 0.0313
vn -0.8416 0.2672 0.4693
vn -0.7918 0.3727 0.4839
vn -0.8339 0.3936 0.3870
vn -0.6534 0.2179 0.7250
vn -0.6354 0.2748 0.7216
vn -0.5289 0.1287 0.8388
vn -0.4820 0.1467 0.8638
vn -0.5758 0.1540 0.8030
vn -0.4487 0.1002 0.8881
vn -0.1831 0.1191 0.9758
vn -0.1585 0.0994 0.9823
vn 0.0046 0.1669 0.9860
vn 0.0267 0.2091 0.9775
vn -0.2301 0.0737 0.9704
vn -0.1599 0.0842 0.9835
vn 0.0838 0.1648 0.9828
vn 0.1838 0.2393 0.9534
vn 0.2467 0.2459 0.9374
vn 0.2754 0.2330 0.9327
vn 0.4457 0.2831 0.8493
vn 0.3787 0.2115 0.9010
vn 0.5723 0.2551 0.7793
vn 0.3710 0.2205 0.9021
vn 0.7464 0.1817 0.6402
vn 0.7644 0.2796 0.5810
vn 0.6992 0.3060 0.6461
vn 0.8961 0.1820 0.4048
vn 0.8887 0.2447 0.3878
vn 0.9743 0.0863 0.2079
vn 0.9829 0.1148 0.1442
vn 0.9654 0.0897 0.2448
vn 0.9955 0.0482 0.0816
vn -0.3788 0.5722 -0.7274
vn -0.4405 0.6664 -0.6015
vn -0.1781 0.6533 -0.7359
vn 0.9806 0.1931 0.0324
vn 0.9112 0.3275 -0.2498
vn 0.9002 0.3722 0.2261
vn -0.2451 0.1602 0.9562
vn -0.2592 0.3020 0.9174
vn -0.0087 0.3265 0.9451
vn -0.5241 0.4165 0.7429
# 233 vertex normals

vt 0.8298 0.8463 0.0000
vt 0.8930 0.7970 0.0000
vt 0.9352 0.8315 0.0000
vt 0.9108 0.8742 0.0000
vt 0.9722 0.8218 0.0000
vt 0.9185 0.7433 0.0000
vt 0.9521 0.8928 0.0000
vt 0.8532 0.9084 0.0000
vt 0.7767 0.9064 0.0000
vt 0.8491 0.9371 0.0000
vt 0.7072 0.9582 0.0000
vt 0.6875 0.8984 0.0000
vt 0.6812 0.8671 0.0000
vt 0.6086 0.9186 0.0000
vt 0.5341 0.8648 0.0000
vt 0.5456 0.9318 0.0000
vt 0.4842 0.9025 0.0000
vt 0.5700 0.9596 0.0000
vt 0.4703 0.9251 0.0000
vt 0.4594 0.8509 0.0000
vt 0.4843 0.8062 0.0000
vt 0.4408 0.8383 0.0000
vt 0.4702 0.7398 0.0000
vt 0.6765 0.8088 0.0000
vt 0.7389 0.8213 0.0000
vt 0.6794 0.8429 0.0000
vt 0.6174 0.8297 0.0000
vt 0.6726 0.7764 0.0000
vt 0.7346 0.7896 0.0000
vt 0.7707 0.7812 0.0000
vt 0.6673 0.7304 0.0000
vt 0.7980 0.7278 0.0000
vt 0.8248 0.7682 0.0000
vt 0.6626 0.6765 0.0000
vt 0.7539 0.6896 0.0000
vt 0.7998 0.6763 0.0000
vt 0.6611 0.6441 0.0000
vt 0.6131 0.7980 0.0000
vt 0.5767 0.7907 0.0000
vt 0.5350 0.7725 0.0000
vt 0.5573 0.7249 0.0000
vt 0.5857 0.6855 0.0000
vt 0.5474 0.6702 0.0000
vt 0.0242 0.3512 0.0000
vt 0.0000 0.2750 0.0000
vt 0.0688 0.2500 0.0000
vt 0.1196 0.2750 0.0000
vt 0.0956 0.1958 0.0000
vt 0.0000 0.1937 0.0000
vt 0.2047 0.1954 0.0000
vt 0.2032 0.3000 0.0000
vt 0.2014 0.3508 0.0000
vt 0.2877 0.2750 0.0000
vt 0.3771 0.3512 0.0000
vt 0.3377 0.2500 0.0000
vt 0.4034 0.2750 0.0000
vt 0.3110 0.1958 0.0000
vt 0.4034 0.1937 0.0000
vt 0.1935 0.5097 0.0000
vt 0.0968 0.4298 0.0000
vt 0.1990 0.4032 0.0000
vt 0.2984 0.4298 0.0000
vt 0.0000 0.1000 0.0000
vt 0.0386 0.0667 0.0000
vt 0.0655 0.1000 0.0000
vt 0.0579 0.0000 0.0000
vt 0.0000 0.0000 0.0000
vt 0.1219 0.0000 0.0000
vt 0.1074 0.1333 0.0000
vt 0.1576 0.1000 0.0000
vt 0.2009 0.0667 0.0000
vt 0.2461 0.1000 0.0000
vt 0.1981 0.0000 0.0000
vt 0.2752 0.0000 0.0000
vt 0.2967 0.1333 0.0000
vt 0.3357 0.1000 0.0000
vt 0.3624 0.0667 0.0000
vt 0.4034 0.1000 0.0000
vt 0.3419 0.0000 0.0000
vt 0.4034 0.0000 0.0000
vt 0.1541 0.1000 0.0000
vt 0.1995 0.0667 0.0000
vt 0.2440 0.1000 0.0000
vt 0.1974 0.1954 0.0000
vt 0.1233 0.0000 0.0000
vt 0.2013 0.0000 0.0000
vt 0.2793 0.0000 0.0000
vt 0.0650 0.1000 0.0000
vt 0.1042 0.1333 0.0000
vt 0.0914 0.1958 0.0000
vt 0.0653 0.2500 0.0000
vt 0.1151 0.2750 0.0000
vt 0.0232 0.3517 0.0000
vt 0.0389 0.0667 0.0000
vt 0.0584 0.0000 0.0000
vt 0.1857 0.5140 0.0000
vt 0.0929 0.4320 0.0000
vt 0.1959 0.4047 0.0000
vt 0.2938 0.4320 0.0000
vt 0.1993 0.3512 0.0000
vt 0.3749 0.3517 0.0000
vt 0.1993 0.3000 0.0000
vt 0.2826 0.2750 0.0000
vt 0.3333 0.2500 0.0000
vt 0.4019 0.2750 0.0000
vt 0.3064 0.1958 0.0000
vt 0.4019 0.1937 0.0000
vt 0.2946 0.1333 0.0000
vt 0.3364 0.1000 0.0000
vt 0.3633 0.0667 0.0000
vt 0.4019 0.1000 0.0000
vt 0.3439 0.0000 0.0000
vt 0.4019 0.0000 0.0000
vt -0.0000 0.1000 0.0000
vt 0.0403 0.0667 0.0000
vt 0.0665 0.1000 0.0000
vt -0.0000 0.1937 0.0000
vt -0.0000 0.0000 0.0000
vt 0.0604 0.0000 0.0000
vt 0.1247 0.0000 0.0000
vt 0.1050 0.1333 0.0000
vt 0.0910 0.1958 0.0000
vt 0.1540 0.1000 0.0000
vt 0.1962 0.1954 0.0000
vt 0.0259 0.3508 0.0000
vt 0.0648 0.2500 0.0000
vt 0.1148 0.2750 0.0000
vt 0.2000 0.3000 0.0000
vt 0.2025 0.3506 0.0000
vt 0.2839 0.2750 0.0000
vt 0.3810 0.3508 0.0000
vt 0.2071 0.5067 0.0000
vt 0.1036 0.4284 0.0000
vt 0.2043 0.4022 0.0000
vt 0.3065 0.4284 0.0000
vt 0.1960 0.0667 0.0000
vt 0.2385 0.1000 0.0000
vt 0.1968 0.0000 0.0000
vt 0.2704 0.0000 0.0000
vt 0.2910 0.1333 0.0000
vt 0.3066 0.1958 0.0000
vt 0.3327 0.1000 0.0000
vt 0.4058 0.1937 0.0000
vt 0.3353 0.2500 0.0000
vt 0.4058 0.2750 0.0000
vt 0.3614 0.0667 0.0000
vt 0.4058 0.1000 0.0000
vt 0.3393 0.0000 0.0000
vt 0.4058 0.0000 0.0000
vt 0.4130 0.5169 0.0000
vt 0.4706 0.4670 0.0000
vt 0.5118 0.5169 0.0000
vt 0.4532 0.6292 0.0000
vt 0.4130 0.3672 0.0000
vt 0.4994 0.3672 0.0000
vt 0.5956 0.3672 0.0000
vt 0.5777 0.5668 0.0000
vt 0.5737 0.6667 0.0000
vt 0.6542 0.5169 0.0000
vt 0.7274 0.6667 0.0000
vt 0.7190 0.4670 0.0000
vt 0.7868 0.5169 0.0000
vt 0.7114 0.3672 0.0000
vt 0.8259 0.3672 0.0000
vt 0.8571 0.5668 0.0000
vt 0.8672 0.6667 0.0000
vt 0.9099 0.5169 0.0000
vt 0.9668 0.6292 0.0000
vt 0.9457 0.4670 0.0000
vt 1.0000 0.5169 0.0000
vt 0.9185 0.3672 0.0000
vt 1.0000 0.3672 0.0000
vt 0.4151 0.5169 0.0000
vt 0.4708 0.4670 0.0000
vt 0.5113 0.5169 0.0000
vt 0.4550 0.6292 0.0000
vt 0.4151 0.3672 0.0000
vt 0.4986 0.3672 0.0000
vt 0.5931 0.3672 0.0000
vt 0.5770 0.5668 0.0000
vt 0.5745 0.6667 0.0000
vt 0.6526 0.5169 0.0000
vt 0.7272 0.6667 0.0000
vt 0.7176 0.4670 0.0000
vt 0.7862 0.5169 0.0000
vt 0.7094 0.3672 0.0000
vt 0.8253 0.3672 0.0000
vt 0.8568 0.5668 0.0000
vt 0.8669 0.6667 0.0000
vt 0.9098 0.5169 0.0000
vt 0.9667 0.6292 0.0000
vt 0.9456 0.4670 0.0000
vt 0.9184 0.3672 0.0000
# 193 texture coords

g Mesh01
usemtl _emerald_wallMaterial__30
s 2
f 1/1/1 2/2/2 3/3/3 4/4/4 
f 5/5/5 3/3/3 2/2/2 6/6/6 
f 4/4/4 3/3/3 5/5/5 7/7/7 
f 4/4/4 8/8/8 9/9/9 1/1/1 
f 7/7/7 10/10/10 8/8/8 4/4/4 
f 9/9/9 8/8/8 10/10/10 11/11/11 
f 9/9/9 12/12/12 13/13/13 1/1/1 
f 14/14/14 12/12/12 9/9/9 11/11/11 
f 13/13/13 12/12/12 14/14/14 15/15/15 
f 14/14/14 16/16/16 17/17/17 15/15/15 
f 18/18/18 16/16/16 14/14/14 11/11/11 
f 19/19/19 17/17/17 16/16/16 18/18/18 
f 15/15/15 17/17/17 20/20/20 21/21/21 
f 22/22/22 20/20/20 17/17/17 19/19/19 
f 21/21/21 20/20/20 22/22/22 23/23/23 
f 24/24/24 25/25/25 26/26/26 27/27/27 
f 13/13/13 26/26/26 25/25/25 1/1/1 
f 27/27/27 26/26/26 13/13/13 15/15/15 
f 24/24/24 28/28/28 29/29/29 25/25/25 
f 30/30/30 29/29/29 28/28/28 31/31/31 
f 25/25/25 29/29/29 30/30/30 1/1/1 
f 32/32/32 33/33/33 30/30/30 31/31/31 
f 6/6/6 2/2/2 33/33/33 32/32/32 
f 30/30/30 33/33/33 2/2/2 1/1/1 
f 31/31/31 34/34/34 35/35/35 32/32/32 
f 36/36/36 35/35/35 34/34/34 37/37/37 
f 32/32/32 35/35/35 36/36/36 6/6/6 
f 24/24/24 27/27/27 38/38/38 28/28/28 
f 39/39/39 38/38/38 27/27/27 15/15/15 
f 28/28/28 38/38/38 39/39/39 31/31/31 
f 21/21/21 40/40/40 39/39/39 15/15/15 
f 23/23/23 41/41/41 40/40/40 21/21/21 
f 39/39/39 40/40/40 41/41/41 31/31/31 
f 41/41/41 42/42/42 34/34/34 31/31/31 
f 43/43/43 42/42/42 41/41/41 23/23/23 
f 37/37/37 34/34/34 42/42/42 43/43/43 
f 44/44/44 45/45/45 46/46/46 47/47/47 
f 48/48/48 46/46/46 45/45/45 49/49/49 
f 47/47/47 46/46/46 48/48/48 50/50/50 
f 47/47/47 51/51/51 52/52/52 44/44/44 
f 50/50/50 53/53/53 51/51/51 47/47/47 
f 52/52/52 51/51/51 53/53/53 54/54/54 
f 54/54/54 53/53/53 55/55/55 56/56/56 
f 57/57/57 55/55/55 53/53/53 50/50/50 
f 56/56/56 55/55/55 57/57/57 58/58/58 
f 59/59/59 60/60/60 61/61/61 62/62/62 
f 52/52/52 61/61/61 60/60/60 44/44/44 
f 62/62/62 61/61/61 52/52/52 54/54/54 
f 63/63/63 64/64/64 65/65/65 49/49/49 
f 66/66/66 64/64/64 63/63/63 67/67/67 
f 68/68/68 65/65/65 64/64/64 66/66/66 
f 49/49/49 65/65/65 69/69/69 48/48/48 
f 70/70/70 69/69/69 65/65/65 68/68/68 
f 48/48/48 69/69/69 70/70/70 50/50/50 
f 70/70/70 71/71/71 72/72/72 50/50/50 
f 73/73/73 71/71/71 70/70/70 68/68/68 
f 74/74/74 72/72/72 71/71/71 73/73/73 
f 50/50/50 72/72/72 75/75/75 57/57/57 
f 76/76/76 75/75/75 72/72/72 74/74/74 
f 58/58/58 57/57/57 75/75/75 76/76/76 
f 76/76/76 77/77/77 78/78/78 58/58/58 
f 79/79/79 77/77/77 76/76/76 74/74/74 
f 80/80/80 78/78/78 77/77/77 79/79/79 
f 81/81/81 82/82/82 83/83/83 84/84/84 
f 85/85/85 86/86/86 82/82/82 81/81/81 
f 83/83/83 82/82/82 86/86/86 87/87/87 
f 58/49/88 88/88/89 89/89/90 90/90/91 
f 81/81/81 89/89/90 88/88/89 85/85/85 
f 84/84/84 90/90/91 89/89/90 81/81/81 
f 56/45/92 91/91/93 92/92/94 54/93/95 
f 90/90/91 91/91/93 56/45/92 58/49/88 
f 84/84/84 92/92/94 91/91/93 90/90/91 
f 78/63/96 93/94/97 88/88/89 58/49/88 
f 80/67/98 94/95/99 93/94/97 78/63/96 
f 88/88/89 93/94/97 94/95/99 85/85/85 
f 59/96/100 62/97/101 95/98/102 96/99/103 
f 97/100/104 95/98/102 62/97/101 54/93/95 
f 96/99/103 95/98/102 97/100/104 98/101/105 
f 54/93/95 92/92/94 99/102/106 97/100/104 
f 100/103/107 99/102/106 92/92/94 84/84/84 
f 97/100/104 99/102/106 100/103/107 98/101/105 
f 98/101/105 100/103/107 101/104/108 102/105/109 
f 103/106/110 101/104/108 100/103/107 84/84/84 
f 102/105/109 101/104/108 103/106/110 104/107/111 
f 83/83/83 105/108/112 103/106/110 84/84/84 
f 106/109/113 105/108/112 83/83/83 87/87/87 
f 104/107/111 103/106/110 105/108/112 106/109/113 
f 106/109/113 107/110/114 108/111/115 104/107/111 
f 87/87/87 109/112/116 107/110/114 106/109/113 
f 108/111/115 107/110/114 109/112/116 110/113/117 
f 108/114/118 111/115/119 112/116/120 104/117/121 
f 110/118/122 113/119/123 111/115/119 108/114/118 
f 112/116/120 111/115/119 113/119/123 114/120/124 
f 104/117/121 112/116/120 115/121/125 116/122/126 
f 117/123/127 115/121/125 112/116/120 114/120/124 
f 118/124/128 116/122/126 115/121/125 117/123/127 
f 98/125/129 102/45/130 119/126/131 120/127/132 
f 116/122/126 119/126/131 102/45/130 104/117/121 
f 120/127/132 119/126/131 116/122/126 118/124/128 
f 120/127/132 121/128/133 122/129/134 98/125/129 
f 123/130/135 121/128/133 120/127/132 118/124/128 
f 122/129/134 121/128/133 123/130/135 44/131/136 
f 59/132/137 96/133/138 124/134/139 60/135/140 
f 122/129/134 124/134/139 96/133/138 98/125/129 
f 60/135/140 124/134/139 122/129/134 44/131/136 
f 117/123/127 125/136/141 126/137/142 118/124/128 
f 114/120/124 127/138/143 125/136/141 117/123/127 
f 128/139/144 126/137/142 125/136/141 127/138/143 
f 118/124/128 126/137/142 129/140/145 130/141/146 
f 131/142/147 129/140/145 126/137/142 128/139/144 
f 49/143/148 130/141/146 129/140/145 131/142/147 
f 44/131/136 123/130/135 132/144/149 45/145/150 
f 130/141/146 132/144/149 123/130/135 118/124/128 
f 45/145/150 132/144/149 130/141/146 49/143/148 
f 131/142/147 133/146/151 63/147/152 49/143/148 
f 134/148/153 133/146/151 131/142/147 128/139/144 
f 67/149/154 63/147/152 133/146/151 134/148/153 
f 135/150/155 136/151/156 137/152/157 138/153/158 
f 139/154/159 140/155/160 136/151/156 135/150/155 
f 137/152/157 136/151/156 140/155/160 141/156/161 
f 138/153/158 137/152/157 142/157/162 10/158/163 
f 143/159/164 142/157/162 137/152/157 141/156/161 
f 11/160/165 10/158/163 142/157/162 143/159/164 
f 143/159/164 144/161/166 145/162/167 11/160/165 
f 141/156/161 146/163/168 144/161/166 143/159/164 
f 147/164/169 145/162/167 144/161/166 146/163/168 
f 145/162/167 148/165/170 18/166/171 11/160/165 
f 149/167/172 148/165/170 145/162/167 147/164/169 
f 150/168/173 18/166/171 148/165/170 149/167/172 
f 149/167/172 151/169/174 152/170/175 150/168/173 
f 147/164/169 153/171/176 151/169/174 149/167/172 
f 154/172/177 152/170/175 151/169/174 153/171/176 
f 152/150/178 155/151/179 156/152/180 157/153/181 
f 154/154/182 158/155/183 155/151/179 152/150/178 
f 159/156/184 156/152/180 155/151/179 158/155/183 
f 157/153/181 156/152/180 160/157/185 22/158/186 
f 161/159/187 160/157/185 156/152/180 159/156/184 
f 23/160/188 22/158/186 160/157/185 161/159/187 
f 161/159/187 162/161/189 163/162/190 23/160/188 
f 159/156/184 164/163/191 162/161/189 161/159/187 
f 165/164/192 163/162/190 162/161/189 164/163/191 
f 23/160/188 163/162/190 166/165/193 43/166/194 
f 167/167/195 166/165/193 163/162/190 165/164/192 
f 168/168/196 43/166/194 166/165/193 167/167/195 
f 167/167/195 169/169/197 170/170/198 168/168/196 
f 165/164/192 171/171/199 169/169/197 167/167/195 
f 172/172/200 170/170/198 169/169/197 171/171/199 
f 170/173/201 173/174/202 174/175/203 175/176/204 
f 172/177/205 176/178/206 173/174/202 170/173/201 
f 177/179/207 174/175/203 173/174/202 176/178/206 
f 175/176/204 174/175/203 178/180/208 36/181/209 
f 179/182/210 178/180/208 174/175/203 177/179/207 
f 6/183/211 36/181/209 178/180/208 179/182/210 
f 179/182/210 180/184/212 181/185/213 6/183/211 
f 177/179/207 182/186/214 180/184/212 179/182/210 
f 183/187/215 181/185/213 180/184/212 182/186/214 
f 181/185/213 184/188/216 5/189/217 6/183/211 
f 185/190/218 184/188/216 181/185/213 183/187/215 
f 186/191/219 5/189/217 184/188/216 185/190/218 
f 185/190/218 187/192/220 135/170/221 186/191/219 
f 183/187/215 188/193/222 187/192/220 185/190/218 
f 139/172/223 135/170/221 187/192/220 188/193/222 
s off
f 150/168/224 152/150/224 157/153/224 19/19/224 
f 157/153/225 22/158/225 19/19/225 
f 19/19/226 18/18/226 150/168/226 
f 186/191/227 135/150/227 138/153/227 7/7/227 
f 138/153/228 10/10/228 7/7/228 
f 7/7/229 5/5/229 186/191/229 
f 168/168/230 170/170/230 175/176/230 37/37/231 
f 175/176/232 36/36/232 37/37/232 
f 37/37/233 43/43/233 168/168/233 
# 165 polygons - 6 triangles

