# 3ds Max Wavefront OBJ Exporter v0.97b - (c)2007 guruware
# File Created: 30.07.2017 16:16:38

mtllib garnet_wall.mtl

#
# object Mesh01
#

v  57.4732 -1.3285 -1.7336
v  34.7174 -1.3285 -31.0841
v  10.3246 27.1086 -13.1038
v  24.7824 28.0569 2.5702
v  -12.7520 58.6851 -11.0431
v  0.5849 59.3931 -0.6143
v  -30.1678 83.0942 -7.0660
v  -23.8759 83.5241 -1.9539
v  -49.0498 129.4950 5.9202
v  -37.3307 82.0566 -10.1202
v  -30.6075 56.9761 -15.2762
v  -17.9347 24.8197 -18.2010
v  -1.8294 -1.3285 -39.6708
v  -44.9267 -1.3285 -20.5986
v  -31.8216 22.5307 -7.5553
v  -42.3655 55.2669 -7.1445
v  -50.1473 81.0188 -4.4356
v  -54.9015 80.5889 2.1307
v  -49.8855 54.5589 6.0302
v  -41.7302 21.5825 11.3267
v  -59.3106 -1.3285 13.6412
v  -36.5549 -1.3285 42.9916
v  -27.7453 22.5307 23.4071
v  -39.4463 55.2669 15.0289
v  -48.1887 81.0188 10.4413
v  -34.3376 82.0566 12.6150
v  -25.9843 56.9761 19.8402
v  -11.5761 24.8197 30.0958
v  10.0101 -1.3285 50.2596
v  43.0894 -1.3285 32.5063
v  14.4007 27.1086 17.8584
v  -9.8330 58.6851 11.1302
v  -28.2091 83.0942 7.8110
# 33 vertices

vn 0.5380 0.7111 -0.4525
vn 0.3914 0.7207 -0.5722
vn 0.3889 0.5520 -0.7376
vn 0.5619 0.5958 -0.5739
vn 0.3882 0.3541 -0.8508
vn 0.5514 0.4013 -0.7314
vn 0.4252 0.4139 -0.8049
vn 0.5374 0.4691 -0.7008
vn -0.1976 0.9765 0.0854
vn 0.2971 0.3499 -0.8884
vn 0.1951 0.2216 -0.9554
vn 0.1556 0.3668 -0.9172
vn 0.1666 0.6850 -0.7092
vn -0.4277 0.4872 -0.7614
vn -0.5630 0.6047 -0.5633
vn -0.7151 0.1935 -0.6717
vn -0.6113 0.0856 -0.7868
vn -0.7107 -0.1828 -0.6793
vn -0.5354 -0.0948 -0.8392
vn -0.6528 0.0401 -0.7565
vn -0.4108 0.1284 -0.9027
vn -0.8191 -0.0349 -0.5727
vn -0.8375 -0.2529 -0.4843
vn -0.8750 0.2238 -0.4294
vn -0.7665 0.5557 -0.3220
vn -0.6090 0.5876 0.5328
vn -0.4174 0.6241 0.6605
vn -0.5206 0.3782 0.7655
vn -0.6408 0.2629 0.7213
vn -0.4976 0.0360 0.8666
vn -0.6668 -0.0614 0.7427
vn -0.5201 0.0412 0.8531
vn -0.7778 -0.0050 0.6285
vn -0.1937 0.1120 0.9746
vn -0.3554 0.1287 0.9258
vn -0.2992 0.4449 0.8441
vn -0.1302 0.5358 0.8342
vn 0.3082 0.6939 0.6508
vn 0.5201 0.7155 0.4664
vn 0.4692 0.6460 0.6021
vn 0.3160 0.5671 0.7606
vn 0.5035 0.5237 0.6872
vn 0.4070 0.4208 0.8107
vn 0.6726 0.4325 0.6005
vn 0.5441 0.3391 0.7674
vn 0.7560 0.5186 0.3994
vn 0.5981 0.5880 0.5446
vn 0.6221 0.6672 0.4096
vn 0.6621 0.6959 0.2782
# 49 vertex normals

vt 0.0020 0.2545 0.0000
vt 0.2500 0.2545 0.0000
vt 0.2500 0.3367 0.0000
vt 0.0020 0.3367 0.0000
vt 0.2500 0.5127 0.0000
vt 0.0020 0.5127 0.0000
vt 0.2500 0.6970 0.0000
vt 0.0020 0.6970 0.0000
vt 0.2500 0.9700 0.0000
vt 0.4960 0.6970 0.0000
vt 0.4960 0.5127 0.0000
vt 0.4960 0.3367 0.0000
vt 0.4960 0.2545 0.0000
# 13 texture coords

g Mesh01
usemtl Material__26
s 1
f 1/1/1 2/2/2 3/3/3 
f 1/1/1 3/3/3 4/4/4 
f 4/4/4 3/3/3 5/5/5 
f 4/4/4 5/5/5 6/6/6 
f 6/6/6 5/5/5 7/7/7 
f 6/6/6 7/7/7 8/8/8 
f 8/8/8 7/7/7 9/9/9 
f 7/7/7 10/10/10 9/9/9 
f 5/5/5 10/10/10 7/7/7 
f 5/5/5 11/11/11 10/10/10 
f 3/3/3 11/11/11 5/5/5 
f 3/3/3 12/12/12 11/11/11 
f 2/2/2 12/12/12 3/3/3 
f 2/2/2 13/13/13 12/12/12 
f 13/1/14 14/2/15 15/3/16 
f 13/1/14 15/3/16 12/4/17 
f 12/4/17 15/3/16 16/5/18 
f 12/4/17 16/5/18 11/6/19 
f 11/6/19 16/5/18 17/7/20 
f 11/6/19 17/7/20 10/8/21 
f 10/8/21 17/7/20 9/9/9 
f 17/7/20 18/10/22 9/9/9 
f 16/5/18 18/10/22 17/7/20 
f 16/5/18 19/11/23 18/10/22 
f 15/3/16 19/11/23 16/5/18 
f 15/3/16 20/12/24 19/11/23 
f 14/2/15 20/12/24 15/3/16 
f 14/2/15 21/13/25 20/12/24 
f 21/1/26 22/2/27 23/3/28 
f 21/1/26 23/3/28 20/4/29 
f 20/4/29 23/3/28 24/5/30 
f 20/4/29 24/5/30 19/6/31 
f 19/6/31 24/5/30 25/7/32 
f 19/6/31 25/7/32 18/8/33 
f 18/8/33 25/7/32 9/9/9 
f 25/7/32 26/10/34 9/9/9 
f 24/5/30 26/10/34 25/7/32 
f 24/5/30 27/11/35 26/10/34 
f 23/3/28 27/11/35 24/5/30 
f 23/3/28 28/12/36 27/11/35 
f 22/2/27 28/12/36 23/3/28 
f 22/2/27 29/13/37 28/12/36 
f 29/1/38 30/2/39 31/3/40 
f 29/1/38 31/3/40 28/4/41 
f 28/4/41 31/3/40 32/5/42 
f 28/4/41 32/5/42 27/6/43 
f 27/6/43 32/5/42 33/7/44 
f 27/6/43 33/7/44 26/8/45 
f 26/8/45 33/7/44 9/9/9 
f 33/7/44 8/10/46 9/9/9 
f 32/5/42 8/10/46 33/7/44 
f 32/5/42 6/11/47 8/10/46 
f 31/3/40 6/11/47 32/5/42 
f 31/3/40 4/12/48 6/11/47 
f 30/2/39 4/12/48 31/3/40 
f 30/2/39 1/13/49 4/12/48 
# 0 polygons - 56 triangles

