# 3ds Max Wavefront OBJ Exporter v0.97b - (c)2007 guruware
# File Created: 07.07.2017 23:21:52

mtllib house.mtl

#
# object Box001
#

v  115.8941 -10.3179 -46.6947
v  115.8940 107.7924 -46.6947
v  115.8938 150.5618 -1.0878
v  115.8304 107.7924 44.5190
v  115.8305 -10.3179 44.5190
v  -104.3425 -10.3179 -99.5131
v  -104.3426 -10.3179 97.3373
v  -104.3426 107.7924 97.3373
v  -104.3425 107.7924 -99.5131
v  14.2661 -11.9722 -99.5130
v  14.2661 -11.9722 97.3373
v  14.1963 109.4467 97.3373
v  13.7677 115.5721 97.3373
v  13.7677 115.5721 -99.5130
v  -45.2874 192.0840 -99.5130
v  -45.2874 192.0840 97.3373
v  14.1963 109.4467 -99.5130
v  14.1963 109.4467 -46.6947
v  14.2661 -11.9722 -46.6947
v  14.1332 109.4467 44.5190
v  -14.3845 150.5618 -1.0878
v  14.2030 -11.9722 44.5190
v  13.7677 107.7924 -107.2928
v  -104.3425 107.7924 -107.2928
v  -104.3425 115.5721 -107.2928
v  -45.2874 192.0840 -107.2928
v  13.7677 115.5721 -107.2928
v  -104.3426 115.5721 97.3373
v  -104.3425 115.5721 -99.5131
v  -104.3426 107.7924 105.1171
v  13.7677 107.7924 105.1171
v  13.7677 115.5721 105.1171
v  -45.2874 192.0840 105.1171
v  -104.3426 115.5721 105.1171
# 34 vertices

vn 1.0000 -0.0001 0.0007
vn 1.0000 0.0000 0.0000
vn 1.0000 -0.0002 0.0007
vn 1.0000 -0.0002 0.0010
vn 1.0000 0.0000 0.0007
vn -1.0000 -0.0000 -0.0000
vn -0.0139 -0.9999 -0.0000
vn -0.0000 0.0000 1.0000
vn 0.7916 0.6110 0.0000
vn -0.0000 1.0000 -0.0000
vn 0.0000 0.0000 -1.0000
vn 1.0000 0.0006 -0.0000
vn -0.8205 -0.5717 -0.0006
vn 1.0000 0.0006 -0.0012
vn -0.0001 1.0000 -0.0000
vn 0.9976 0.0698 0.0000
vn -0.7916 0.6110 -0.0000
vn 0.0070 -0.9944 0.1055
vn 0.9991 0.0308 -0.0308
vn 0.0070 -0.9944 -0.1055
vn 0.9991 0.0308 0.0308
vn 0.0000 -0.0000 -1.0000
vn 0.0053 0.7369 0.6760
vn 0.0163 -0.9999 0.0000
vn 0.0053 0.7369 -0.6760
# 25 vertex normals

vt 0.4237 0.2477 0.0000
vt 0.6647 0.2477 0.0000
vt 0.7519 0.3408 0.0000
vt 0.6647 0.4339 0.0000
vt 0.4237 0.4339 0.0000
vt 0.4135 0.0164 0.0000
vt 0.4135 0.4180 0.0000
vt 0.1725 0.4180 0.0000
vt 0.1725 0.0164 0.0000
vt 0.4189 0.0005 0.0000
vt 0.8206 0.0005 0.0000
vt 0.8206 0.2425 0.0000
vt 0.4189 0.2425 0.0000
vt 0.7422 0.9995 0.0000
vt 0.7424 0.7518 0.0000
vt 0.9843 0.7551 0.0000
vt 0.9843 0.9961 0.0000
vt 0.1566 0.4538 0.0000
vt 0.1566 0.8555 0.0000
vt 0.0005 0.8555 0.0000
vt 0.0005 0.4538 0.0000
vt 0.9841 0.5045 0.0000
vt 0.9843 0.7523 0.0000
vt 0.7422 0.7489 0.0000
vt 0.7422 0.5079 0.0000
vt 0.8231 0.2482 0.0000
vt 0.8231 0.0005 0.0000
vt 0.9308 0.0005 0.0000
vt 0.9308 0.2482 0.0000
vt 0.1764 0.8253 0.0000
vt 0.1764 0.4237 0.0000
vt 0.1764 0.5314 0.0000
vt 0.2603 0.6245 0.0000
vt 0.1764 0.7176 0.0000
vt 0.2430 0.6471 0.0000
vt 0.4907 0.6471 0.0000
vt 0.4907 0.7549 0.0000
vt 0.2430 0.7549 0.0000
vt 0.1717 0.8491 0.0000
vt 0.1717 0.4474 0.0000
vt 0.1717 0.5552 0.0000
vt 0.1718 0.7413 0.0000
vt 0.1691 0.4538 0.0000
vt 0.1691 0.8555 0.0000
vt 0.3461 0.9856 0.0000
vt 0.1051 0.9856 0.0000
vt 0.1051 0.9697 0.0000
vt 0.2256 0.8136 0.0000
vt 0.3461 0.9697 0.0000
vt 0.1566 0.4180 0.0000
vt 0.1566 0.0164 0.0000
vt 0.7288 0.6471 0.0000
vt 0.7288 0.8881 0.0000
vt 0.7129 0.8881 0.0000
vt 0.5568 0.7676 0.0000
vt 0.7129 0.6471 0.0000
vt 0.0005 0.0164 0.0000
vt 0.0005 0.4180 0.0000
vt 0.9578 0.0053 0.0000
vt 0.9578 0.2471 0.0000
vt 0.9419 0.2471 0.0000
vt 0.9419 0.0061 0.0000
vt 0.1566 0.0005 0.0000
vt 0.1725 0.0005 0.0000
vt 0.0005 0.0005 0.0000
vt 0.1566 0.8713 0.0000
vt 0.0005 0.8713 0.0000
vt 0.1725 0.8713 0.0000
vt 0.2430 0.7565 0.0000
vt 0.4849 0.7565 0.0000
vt 0.4840 0.7724 0.0000
vt 0.2430 0.7724 0.0000
vt 0.1566 0.4379 0.0000
vt 0.1725 0.4379 0.0000
vt 0.0005 0.4379 0.0000
vt 0.1566 0.4339 0.0000
vt 0.0005 0.4339 0.0000
vt 0.1725 0.4339 0.0000
vt 0.7332 0.4379 0.0000
vt 0.7299 0.6454 0.0000
vt 0.4889 0.6454 0.0000
vt 0.4855 0.4381 0.0000
vt 0.2679 0.4474 0.0000
vt 0.4754 0.4474 0.0000
vt 0.4755 0.5405 0.0000
vt 0.2097 0.5405 0.0000
vt 0.9829 0.5002 0.0000
vt 0.7755 0.4969 0.0000
vt 0.7755 0.2559 0.0000
vt 0.9830 0.2525 0.0000
vt 0.3477 0.7993 0.0000
vt 0.5551 0.7993 0.0000
vt 0.5550 0.9854 0.0000
vt 0.3476 0.9854 0.0000
vt 0.4755 0.6336 0.0000
vt 0.2680 0.6336 0.0000
# 96 texture coords

g Box001
usemtl Material__2
s 2
f 1/1/1 2/2/2 3/3/3 4/4/4 5/5/5 
s 4
f 6/6/6 7/7/6 8/8/6 9/9/6 
s 8
f 10/10/7 11/11/7 7/12/7 6/13/7 
s 16
f 11/14/8 12/15/8 8/16/8 7/17/8 
s 32
f 13/18/9 14/19/9 15/20/10 16/21/10 
s 64
f 17/22/11 10/23/11 6/24/11 9/25/11 
s off
f 10/26/12 17/27/12 18/28/12 19/29/12 
f 17/30/13 12/31/13 20/32/13 21/33/13 18/34/13 
f 12/35/14 11/36/14 22/37/14 20/38/14 
f 11/39/15 10/40/15 19/41/15 22/42/15 
f 12/43/16 17/44/16 14/19/16 13/18/16 
f 23/45/11 24/46/11 25/47/11 26/48/11 27/49/11 
f 9/9/6 8/8/6 28/50/6 29/51/6 
f 30/52/8 31/53/8 32/54/8 33/55/8 34/56/8 
s 32
f 15/57/10 29/51/17 28/50/17 16/58/10 
s off
f 17/59/18 9/60/18 24/61/18 23/62/18 
f 9/9/6 29/51/6 25/63/6 24/64/6 
f 29/51/17 15/57/17 26/65/17 25/63/17 
f 15/20/9 14/19/9 27/66/9 26/67/9 
f 14/19/19 17/44/19 23/68/19 27/66/19 
f 8/69/20 12/70/20 31/71/20 30/72/20 
f 12/43/21 13/18/21 32/73/21 31/74/21 
f 13/18/9 16/21/9 33/75/9 32/73/9 
f 16/58/17 28/50/17 34/76/17 33/77/17 
f 28/50/6 8/8/6 30/78/6 34/76/6 
f 18/79/22 2/80/22 1/81/22 19/82/22 
f 20/83/23 4/84/23 3/85/23 21/86/23 
f 22/87/8 5/88/8 4/89/8 20/90/8 
f 19/91/24 1/92/24 5/93/24 22/94/24 
f 3/85/25 2/95/25 18/96/25 21/86/25 
# 30 polygons

#
# object Box002
#

v  14.6705 -11.5594 84.5569
v  14.6705 -11.5594 45.1868
v  54.0406 -11.5594 45.1868
v  54.0406 -11.5594 84.5569
v  14.6705 190.2954 84.5569
v  54.0406 190.2954 84.5569
v  54.0406 190.2954 45.1868
v  14.6705 190.2954 45.1868
v  54.0406 185.2910 84.5569
v  14.6705 185.2910 84.5569
v  54.0406 185.2910 45.1868
v  14.6705 185.2910 45.1868
v  14.6705 185.2910 94.3994
v  54.0406 185.2910 94.3994
v  54.0406 190.2954 94.3994
v  14.6705 190.2954 94.3994
v  63.8831 185.2910 84.5569
v  63.8831 185.2910 45.1868
v  63.8831 190.2954 45.1868
v  63.8831 190.2954 84.5569
v  54.0406 185.2910 35.3443
v  14.6705 185.2910 35.3443
v  14.6705 190.2954 35.3443
v  54.0406 190.2954 35.3443
v  4.8280 185.2910 45.1868
v  4.8280 185.2910 84.5569
v  4.8280 190.2954 84.5569
v  4.8280 190.2954 45.1868
v  63.8831 190.2954 35.3443
v  63.8831 185.2910 35.3443
v  63.8831 185.2910 94.3994
v  63.8831 190.2954 94.3994
v  63.8831 243.4832 84.5569
v  54.0406 243.4832 84.5569
v  54.0406 243.4832 94.3994
v  63.8831 243.4832 94.3994
v  4.8280 185.2910 94.3994
v  4.8280 190.2954 94.3994
v  14.6705 243.4832 94.3994
v  14.6705 243.4832 84.5569
v  4.8280 243.4832 84.5569
v  4.8280 243.4832 94.3994
v  4.8280 185.2910 35.3443
v  4.8280 190.2954 35.3443
v  4.8280 243.4832 45.1868
v  14.6705 243.4832 45.1868
v  14.6705 243.4832 35.3443
v  4.8280 243.4832 35.3443
v  54.0406 243.4832 45.1868
v  63.8831 243.4832 45.1868
v  63.8831 243.4832 35.3443
v  54.0406 243.4832 35.3443
v  14.6705 239.5080 84.5569
v  54.0406 239.5080 84.5569
v  14.6705 239.5080 45.1868
v  54.0406 239.5080 45.1868
v  63.8831 239.5080 45.1868
v  63.8831 239.5080 84.5569
v  63.8831 239.5080 35.3443
v  54.0406 239.5080 35.3443
v  14.6705 239.5080 35.3443
v  4.8280 239.5080 35.3443
v  4.8280 239.5080 45.1868
v  4.8280 239.5080 84.5569
v  4.8280 239.5080 94.3994
v  14.6705 239.5080 94.3994
v  54.0406 239.5080 94.3994
v  63.8831 239.5080 94.3994
v  48.7918 262.7515 53.8707
v  48.7918 262.7515 75.8729
v  22.7891 262.7515 49.8724
v  45.9220 262.7515 49.8724
v  29.6514 262.7515 53.8707
v  29.6514 262.7515 75.8729
v  19.8089 262.7515 75.8729
v  19.8089 262.7515 53.8707
v  22.7891 262.7515 69.7144
v  45.9220 262.7515 69.7144
v  45.9220 262.7515 79.5569
v  22.7891 262.7515 79.5569
v  35.0467 309.9871 64.8648
v  35.0466 309.9871 64.9427
v  33.6588 309.9871 64.9383
v  33.6588 309.9871 64.8648
v  40.1650 290.3021 59.8438
v  40.1592 290.3021 69.9803
v  28.5430 290.3021 59.8062
v  28.5436 290.3021 69.9803
# 88 vertices

vn 0.0000 -1.0000 -0.0000
vn 0.0000 1.0000 -0.0000
vn 0.0000 0.0000 1.0000
vn 1.0000 0.0000 -0.0000
vn 0.0000 0.0000 -1.0000
vn -1.0000 0.0000 -0.0000
vn 0.8387 0.5446 -0.0000
vn 0.0000 0.5300 -0.8480
vn 0.8405 -0.5417 -0.0000
vn -0.8405 0.5417 -0.0000
vn 0.0000 -0.5382 -0.8428
vn 0.0000 0.5382 0.8428
vn 0.9543 0.2989 0.0002
vn 0.6394 0.5327 -0.5545
vn 0.0010 0.3398 -0.9405
vn -0.6357 0.5318 -0.5596
vn -0.9532 0.3022 0.0000
vn -0.6236 0.5350 0.5700
vn 0.0000 0.3283 0.9446
vn 0.6274 0.5359 0.5650
vn 0.9679 0.2515 0.0006
vn 0.0031 0.2515 -0.9678
vn -0.9679 0.2515 0.0001
vn 0.0000 0.2515 0.9679
# 24 vertex normals

vt 0.5794 0.9934 0.0000
vt 0.5794 0.8564 0.0000
vt 0.7163 0.8564 0.0000
vt 0.7163 0.9934 0.0000
vt 0.4408 0.8564 0.0000
vt 0.5778 0.8564 0.0000
vt 0.5778 0.9934 0.0000
vt 0.4408 0.9934 0.0000
vt 0.8337 0.1390 0.0000
vt 0.8337 0.2760 0.0000
vt 0.1489 0.2760 0.0000
vt 0.1489 0.1390 0.0000
vt 0.8341 0.2771 0.0000
vt 0.8337 0.4145 0.0000
vt 0.1489 0.4145 0.0000
vt 0.1489 0.2776 0.0000
vt 0.8238 0.0005 0.0000
vt 0.8238 0.1374 0.0000
vt 0.1390 0.1374 0.0000
vt 0.1390 0.0005 0.0000
vt 0.1374 0.6902 0.0000
vt 0.0005 0.6902 0.0000
vt 0.0005 0.0054 0.0000
vt 0.1374 0.0054 0.0000
vt 0.1489 0.5873 0.0000
vt 0.1489 0.4503 0.0000
vt 0.1663 0.4503 0.0000
vt 0.1663 0.5873 0.0000
vt 0.4392 0.6581 0.0000
vt 0.4392 0.7951 0.0000
vt 0.4218 0.7951 0.0000
vt 0.4218 0.6581 0.0000
vt 0.0054 0.9583 0.0000
vt 0.0054 0.8214 0.0000
vt 0.0229 0.8214 0.0000
vt 0.0229 0.9583 0.0000
vt 0.7905 0.5196 0.0000
vt 0.7905 0.6565 0.0000
vt 0.7731 0.6565 0.0000
vt 0.7731 0.5196 0.0000
vt 0.9633 0.6565 0.0000
vt 0.9633 0.5196 0.0000
vt 0.9975 0.5196 0.0000
vt 0.9975 0.6565 0.0000
vt 0.0229 0.9926 0.0000
vt 0.0054 0.9926 0.0000
vt 0.1489 0.4161 0.0000
vt 0.1663 0.4161 0.0000
vt 0.8263 0.6565 0.0000
vt 0.9633 0.6908 0.0000
vt 0.8263 0.6908 0.0000
vt 0.9975 0.6908 0.0000
vt 0.4218 0.6239 0.0000
vt 0.4392 0.6239 0.0000
vt 0.4899 0.4850 0.0000
vt 0.4557 0.4850 0.0000
vt 0.4557 0.4507 0.0000
vt 0.4899 0.4507 0.0000
vt 0.7905 0.6908 0.0000
vt 0.7731 0.6908 0.0000
vt 0.8263 0.5196 0.0000
vt 0.7921 0.6565 0.0000
vt 0.7921 0.5196 0.0000
vt 0.7921 0.6908 0.0000
vt 0.1663 0.6215 0.0000
vt 0.1489 0.6215 0.0000
vt 0.2475 0.9653 0.0000
vt 0.2475 0.9995 0.0000
vt 0.2132 0.9995 0.0000
vt 0.2132 0.9653 0.0000
vt 0.0054 0.7872 0.0000
vt 0.0229 0.7872 0.0000
vt 0.8263 0.4854 0.0000
vt 0.9633 0.4854 0.0000
vt 0.7921 0.4854 0.0000
vt 0.7731 0.4854 0.0000
vt 0.7905 0.4854 0.0000
vt 0.9064 0.5224 0.0000
vt 0.9064 0.5567 0.0000
vt 0.8721 0.5567 0.0000
vt 0.8721 0.5224 0.0000
vt 0.4012 0.4359 0.0000
vt 0.4355 0.4359 0.0000
vt 0.4355 0.4701 0.0000
vt 0.4012 0.4701 0.0000
vt 0.4392 0.8293 0.0000
vt 0.4218 0.8293 0.0000
vt 0.9975 0.4854 0.0000
vt 0.8366 0.0005 0.0000
vt 0.9736 0.0005 0.0000
vt 0.9736 0.1717 0.0000
vt 0.8366 0.1717 0.0000
vt 0.4507 0.8301 0.0000
vt 0.4507 0.6932 0.0000
vt 0.6219 0.6932 0.0000
vt 0.6219 0.8301 0.0000
vt 0.9930 0.6932 0.0000
vt 0.9930 0.8301 0.0000
vt 0.8218 0.8301 0.0000
vt 0.8218 0.6932 0.0000
vt 0.9930 0.8317 0.0000
vt 0.9930 0.9686 0.0000
vt 0.8218 0.9686 0.0000
vt 0.8218 0.8317 0.0000
vt 0.2506 0.7951 0.0000
vt 0.2506 0.6581 0.0000
vt 0.2506 0.8293 0.0000
vt 0.1940 0.9583 0.0000
vt 0.1940 0.9926 0.0000
vt 0.1940 0.8214 0.0000
vt 0.1940 0.7872 0.0000
vt 0.6019 0.5196 0.0000
vt 0.6019 0.4854 0.0000
vt 0.6019 0.6565 0.0000
vt 0.6019 0.6908 0.0000
vt 0.3375 0.5873 0.0000
vt 0.3375 0.6215 0.0000
vt 0.3375 0.4503 0.0000
vt 0.3375 0.4161 0.0000
vt 0.2506 0.6239 0.0000
vt 0.1698 0.7649 0.0000
vt 0.1698 0.6883 0.0000
vt 0.2749 0.8496 0.0000
vt 0.2749 0.9301 0.0000
vt 0.7028 0.7234 0.0000
vt 0.7028 0.7999 0.0000
vt 0.5210 0.6263 0.0000
vt 0.5210 0.5498 0.0000
vt 0.9453 0.2525 0.0000
vt 0.8649 0.2525 0.0000
vt 0.4184 0.4786 0.0000
vt 0.4184 0.5590 0.0000
vt 0.5447 0.4656 0.0000
vt 0.5790 0.4656 0.0000
vt 0.5790 0.4794 0.0000
vt 0.5447 0.4794 0.0000
vt 0.5002 0.4656 0.0000
vt 0.5344 0.4656 0.0000
vt 0.5344 0.4794 0.0000
vt 0.5002 0.4794 0.0000
vt 0.3513 0.4161 0.0000
vt 0.3513 0.4503 0.0000
vt 0.2368 0.6581 0.0000
vt 0.2368 0.6239 0.0000
vt 0.3567 0.4309 0.0000
vt 0.3910 0.4309 0.0000
vt 0.3910 0.4448 0.0000
vt 0.3567 0.4448 0.0000
vt 0.8573 0.5224 0.0000
vt 0.8573 0.5567 0.0000
vt 0.8435 0.5567 0.0000
vt 0.8435 0.5224 0.0000
vt 0.5880 0.6908 0.0000
vt 0.5880 0.6565 0.0000
vt 0.3513 0.5873 0.0000
vt 0.3513 0.6215 0.0000
vt 0.5002 0.4804 0.0000
vt 0.5344 0.4804 0.0000
vt 0.5344 0.4942 0.0000
vt 0.5002 0.4942 0.0000
vt 0.8716 0.5224 0.0000
vt 0.8716 0.5567 0.0000
vt 0.8578 0.5567 0.0000
vt 0.8578 0.5224 0.0000
vt 0.2079 0.7872 0.0000
vt 0.2079 0.8214 0.0000
vt 0.5880 0.5196 0.0000
vt 0.5880 0.4854 0.0000
vt 0.5734 0.4210 0.0000
vt 0.5734 0.4553 0.0000
vt 0.5596 0.4553 0.0000
vt 0.5596 0.4210 0.0000
vt 0.2368 0.8293 0.0000
vt 0.2368 0.7951 0.0000
vt 0.2079 0.9583 0.0000
vt 0.2079 0.9926 0.0000
vt 0.8430 0.5224 0.0000
vt 0.8430 0.5567 0.0000
vt 0.8292 0.5567 0.0000
vt 0.8292 0.5224 0.0000
vt 0.8294 0.5620 0.0000
vt 0.8292 0.5620 0.0000
vt 0.8292 0.5571 0.0000
vt 0.8294 0.5571 0.0000
vt 0.0739 0.7441 0.0000
vt 0.0739 0.7088 0.0000
vt 0.5526 0.4641 0.0000
vt 0.4568 0.4377 0.0000
vt 0.3567 0.4176 0.0000
vt 0.4572 0.4207 0.0000
vt 0.5578 0.4161 0.0000
vt 0.3707 0.9101 0.0000
vt 0.3707 0.8696 0.0000
vt 0.9938 0.3982 0.0000
vt 0.9455 0.3981 0.0000
vt 0.9607 0.2987 0.0000
vt 0.9688 0.1984 0.0000
vt 0.9780 0.3001 0.0000
vt 0.4252 0.6058 0.0000
vt 0.4252 0.5704 0.0000
vt 0.4142 0.9504 0.0000
vt 0.4096 0.9986 0.0000
vt 0.3131 0.9727 0.0000
vt 0.2132 0.9546 0.0000
vt 0.3137 0.9563 0.0000
vt 0.5142 0.4986 0.0000
vt 0.5142 0.5390 0.0000
vt 0.8690 0.3589 0.0000
vt 0.8850 0.4576 0.0000
vt 0.8366 0.4573 0.0000
vt 0.8528 0.3578 0.0000
vt 0.8612 0.2578 0.0000
vt 0.0054 0.7263 0.0000
vt 0.0054 0.7266 0.0000
vt 0.4392 0.8874 0.0000
vt 0.4392 0.8923 0.0000
vt 0.3567 0.5880 0.0000
vt 0.3567 0.5883 0.0000
vt 0.5827 0.5164 0.0000
vt 0.5827 0.5212 0.0000
# 220 texture coords

g Box002
usemtl Material__6
s 2
f 35/97/26 36/98/26 37/99/26 38/100/26 
s 4
f 39/101/27 40/102/27 41/103/27 42/104/27 
s 8
f 35/105/28 38/106/28 43/107/28 44/108/28 
s 16
f 38/109/29 37/110/29 45/111/29 43/112/29 
s 32
f 37/113/30 36/114/30 46/115/30 45/116/30 
s 64
f 36/117/31 35/118/31 44/119/31 46/120/31 
s off
f 47/121/28 48/122/28 49/123/28 50/124/28 
f 51/125/29 52/126/29 53/127/29 54/128/29 
f 55/129/30 56/130/30 57/131/30 58/132/30 
f 59/133/31 60/134/31 61/135/31 62/136/31 
f 43/137/26 45/138/26 52/139/26 51/140/26 
f 55/129/30 58/132/30 63/141/30 64/142/30 
f 49/123/28 48/122/28 65/143/28 66/144/28 
f 44/145/26 43/137/26 48/146/26 47/147/26 
f 43/137/26 51/140/26 65/148/26 48/146/26 
f 51/125/29 54/128/29 66/149/29 65/150/29 
f 67/151/27 68/152/27 69/153/27 70/154/27 
f 61/135/31 60/134/31 71/155/31 72/156/31 
f 46/157/26 44/145/26 60/158/26 59/159/26 
f 44/145/26 47/147/26 71/160/26 60/158/26 
f 47/121/28 50/124/28 72/161/28 71/162/28 
f 73/163/27 74/164/27 75/165/27 76/166/27 
f 57/131/30 56/130/30 77/167/30 78/168/30 
f 45/138/26 46/157/26 56/169/26 55/170/26 
f 46/157/26 59/159/26 77/171/26 56/169/26 
f 59/133/31 62/136/31 78/172/31 77/173/31 
f 79/174/27 80/175/27 81/176/27 82/177/27 
f 83/178/27 84/179/27 85/180/27 86/181/27 
f 53/127/29 52/126/29 64/182/29 63/183/29 
f 52/139/26 45/138/26 55/170/26 64/184/26 
f 40/185/30 39/186/30 87/187/30 88/188/30 
f 39/189/29 42/190/29 89/191/29 87/192/29 
f 42/193/28 41/194/28 90/195/28 89/196/28 
f 41/197/31 40/198/31 88/199/31 90/200/31 
f 54/128/29 53/127/29 91/201/29 92/202/29 
f 53/127/29 63/183/29 93/203/29 91/201/29 
f 63/141/30 58/132/30 94/204/30 93/205/30 
f 58/132/30 57/131/30 95/206/30 94/204/30 
f 57/131/30 78/168/30 96/207/30 95/206/30 
f 78/172/31 62/136/31 97/208/31 96/209/31 
f 62/136/31 61/135/31 98/210/31 97/208/31 
f 61/135/31 72/156/31 99/211/31 98/210/31 
f 72/161/28 50/124/28 100/212/28 99/213/28 
f 50/124/28 49/123/28 101/214/28 100/212/28 
f 49/123/28 66/144/28 102/215/28 101/214/28 
f 66/149/29 54/128/29 92/202/29 102/216/29 
f 92/202/32 91/201/32 103/217/32 104/218/32 
f 94/204/33 95/206/33 105/219/33 106/220/33 
f 87/192/34 89/191/34 107/221/34 108/222/34 
f 97/208/35 98/210/35 109/223/35 110/224/35 
f 88/188/36 87/187/36 111/225/36 112/226/36 
f 100/212/37 101/214/37 113/227/37 114/228/37 
f 92/229/30 88/230/30 68/231/30 67/232/30 
f 88/233/31 101/234/31 69/235/31 68/236/31 
f 101/214/28 102/215/28 70/237/28 69/238/28 
f 102/216/29 92/202/29 67/239/29 70/240/29 
f 100/241/29 87/242/29 74/243/29 73/244/29 
f 87/245/30 98/246/30 75/247/30 74/248/30 
f 98/210/31 99/211/31 76/249/31 75/250/31 
f 99/213/28 100/212/28 73/251/28 76/252/28 
f 97/253/28 89/254/28 80/255/28 79/256/28 
f 89/257/29 95/258/29 81/259/29 80/260/29 
f 95/206/30 96/207/30 82/261/30 81/262/30 
f 96/209/31 97/208/31 79/263/31 82/264/31 
f 90/265/28 91/266/28 84/267/28 83/268/28 
f 91/201/29 93/203/29 85/269/29 84/270/29 
f 93/205/30 94/204/30 86/271/30 85/272/30 
f 94/273/31 90/274/31 83/275/31 86/276/31 
f 115/277/26 116/278/26 117/279/26 118/280/26 
f 119/281/38 120/282/38 104/218/38 103/217/38 
f 94/283/39 106/284/39 119/285/39 103/286/39 91/287/39 
f 119/288/40 106/220/40 105/219/40 121/289/40 
f 95/290/41 97/291/41 110/292/41 121/293/41 105/294/41 
f 109/223/42 122/295/42 121/296/42 110/224/42 
f 98/297/43 100/298/43 114/299/43 122/300/43 109/301/43 
f 113/227/44 120/302/44 122/303/44 114/228/44 
f 113/304/45 101/305/45 92/306/45 104/307/45 120/308/45 
f 120/282/46 119/281/46 116/309/46 115/310/46 
f 119/288/47 121/289/47 117/311/47 116/312/47 
f 121/296/48 122/295/48 118/313/48 117/314/48 
f 122/303/49 120/302/49 115/315/49 118/316/49 
# 81 polygons

