# 3ds Max Wavefront OBJ Exporter v0.97b - (c)2007 guruware
# File Created: 16.07.2017 14:55:58

mtllib topaz_wall.mtl

#
# object Mesh01
#

v  32.0949 -0.2434 -21.9804
v  2.8735 -0.2434 -56.8052
v  15.2592 50.2845 -73.7675
v  52.8595 55.9289 -34.0629
v  -0.2610 -0.2434 -0.5186
v  -24.5643 -0.2434 18.8402
v  -21.9852 32.4412 19.9346
v  -0.7598 25.8943 2.9961
v  29.6858 -0.2434 -8.8015
v  25.4198 28.4559 -4.2194
v  13.8502 21.3486 31.6698
v  -14.3809 31.9514 46.0625
v  2.2806 23.3328 67.5589
v  28.4667 25.8943 60.3565
v  49.6855 28.4559 43.4049
v  40.7403 24.2546 17.9685
v  47.1546 -0.2434 16.4649
v  57.3277 -0.2434 45.4487
v  -15.9260 -0.2434 48.6154
v  3.0774 -0.2434 73.0906
v  33.0319 -0.2434 64.8226
v  -3.7382 63.4760 -64.5153
v  -20.0027 78.2360 -42.9507
v  16.6138 83.8570 -2.8083
v  35.3525 70.9194 -12.9113
v  -28.9430 101.9930 22.0405
v  -44.0230 88.8014 36.8426
v  -22.8733 -0.2434 29.9208
v  -20.3616 116.7530 -3.5704
v  1.4113 -0.2434 -9.7084
v  -37.3500 -0.2434 -33.4615
v  -61.6349 -0.2434 6.1678
v  -92.2789 94.4458 11.1205
v  -82.3881 109.4360 -14.4927
v  -67.8235 122.3740 -30.0198
v  -32.7309 -0.2434 -26.9295
v  -3.5095 -0.2434 7.8951
v  -9.2746 25.7544 45.9725
v  -39.1110 15.9558 48.5155
v  -21.9946 15.7884 73.0367
v  -7.2358 25.5869 57.1630
v  -5.2582 -1.2443 34.2353
v  -48.2421 0.5999 45.4616
v  -25.1853 0.4010 82.4393
v  1.1800 -1.4432 62.4351
v  -56.3318 16.4384 37.6344
v  -53.0618 10.1972 56.4250
v  -38.4527 10.0907 44.2031
v  -49.3443 16.3318 35.7195
v  -64.0020 -0.7581 35.7375
v  -54.4927 0.4165 62.3883
v  -32.3097 0.2898 45.7058
v  -46.4662 -0.8849 30.0869
v  57.7405 24.5494 -15.8382
v  41.8599 33.2560 -10.3154
v  54.2278 33.0846 2.5941
v  64.7125 24.3778 -7.6640
v  60.4759 -0.1644 -17.3268
v  40.7564 -0.3321 -8.9379
v  55.7973 -0.5358 9.0355
v  70.1210 -0.3681 -4.0887
v  -23.1342 25.7544 -40.7603
v  -48.4931 15.9558 -56.6854
v  -49.5808 15.7884 -26.8008
v  -28.2406 25.5869 -30.5960
v  -12.8630 -1.2443 -47.7167
v  -53.9476 0.5999 -64.6195
v  -57.7875 0.4010 -21.2120
v  -24.6923 -1.4432 -21.3209
v  -25.5358 16.4384 -87.4388
v  -34.2329 10.1972 -70.4641
v  -15.2103 10.0907 -71.4329
v  -18.8029 16.3318 -84.7628
v  -30.5200 -0.7581 -93.5698
v  -38.9643 0.4165 -66.5625
v  -11.2084 0.2898 -66.5359
v  -13.1146 -0.8849 -87.5293
# 77 vertices

vn 0.7034 -0.3808 -0.6002
vn 0.7104 -0.3742 -0.5961
vn 0.7021 -0.3820 -0.6010
vn 0.6963 -0.3874 -0.6043
vn -0.4388 0.1067 -0.8922
vn -0.6213 0.0751 -0.7800
vn -0.6133 0.0838 -0.7854
vn -0.4579 0.1074 -0.8825
vn -0.2695 0.1175 -0.9558
vn -0.2742 0.1117 -0.9552
vn 0.0632 0.9979 0.0139
vn 0.1283 0.9875 0.0912
vn 0.3067 0.9511 -0.0376
vn 0.3500 0.9368 -0.0036
vn 0.1380 0.9904 -0.0103
vn -0.1479 0.9857 -0.0808
vn -0.1667 0.9823 -0.0860
vn -0.0854 0.9954 0.0435
vn -0.0284 0.9823 0.1854
vn 0.8699 0.2447 -0.4282
vn 0.8045 0.2084 -0.5562
vn 0.8110 0.2248 -0.5402
vn 0.8676 0.2435 -0.4335
vn 0.9106 0.2367 -0.3387
vn 0.9092 0.2168 -0.3555
vn -0.8816 0.0865 0.4639
vn -0.7845 0.1164 0.6091
vn -0.7775 0.1017 0.6207
vn -0.8954 0.0771 0.4385
vn -0.9580 0.0672 0.2789
vn -0.9577 0.0662 0.2800
vn 0.4464 0.2205 0.8673
vn 0.6087 0.2164 0.7633
vn 0.5999 0.2249 0.7678
vn 0.4295 0.2299 0.8733
vn 0.2487 0.2182 0.9437
vn 0.2372 0.2295 0.9440
vn 0.3515 0.8483 -0.3961
vn 0.2867 0.8775 -0.3844
vn 0.3460 0.8493 -0.3988
vn 0.3519 0.8467 -0.3991
vn 0.3349 0.8532 -0.3999
vn 0.2801 0.8772 -0.3899
vn 0.8627 0.0896 0.4978
vn 0.6529 0.0967 0.7513
vn 0.8373 0.1210 0.5333
vn 0.9056 0.0987 0.4126
vn 0.8454 0.1301 0.5181
vn -0.8112 -0.2330 -0.5363
vn -0.8275 -0.2413 -0.5071
vn -0.8366 -0.2576 -0.4835
vn -0.7498 -0.1987 -0.6311
vn -0.6595 -0.1432 -0.7379
vn -0.6582 -0.0903 -0.7474
vn -0.6419 -0.0521 -0.7650
vn -0.7630 -0.1100 -0.6370
vn -0.7491 -0.1556 -0.6440
vn -0.5177 -0.1555 -0.8413
vn 0.6231 -0.0851 0.7775
vn 0.6411 -0.0726 0.7640
vn 0.6797 -0.1451 0.7189
vn 0.5933 -0.0901 0.7999
vn 0.4739 -0.0013 0.8806
vn -0.7378 0.2534 0.6257
vn -0.7405 0.2563 0.6213
vn -0.7353 0.2509 0.6295
vn -0.7327 0.2482 0.6336
vn -0.2077 0.8482 0.4872
vn -0.1499 0.8775 0.4555
vn -0.2016 0.8493 0.4880
vn -0.2070 0.8467 0.4901
vn -0.1908 0.8532 0.4855
vn -0.1419 0.8772 0.4586
vn -0.5026 -0.1910 0.8432
vn -0.5133 -0.1870 0.8376
vn -0.4882 -0.1964 0.8504
vn -0.4790 -0.1997 0.8548
vn 0.5107 0.1481 -0.8469
vn 0.5164 0.1520 -0.8427
vn 0.5001 0.1408 -0.8545
vn 0.4945 0.1371 -0.8583
vn -0.3667 0.9156 0.1648
vn -0.2891 0.9344 0.2082
vn -0.3314 0.9252 0.1849
vn -0.4739 0.8749 0.0994
vn -0.2072 0.3506 -0.9133
vn -0.2268 0.3179 -0.9206
vn -0.2169 0.3344 -0.9171
vn -0.1977 0.3659 -0.9094
vn -0.7649 0.3866 0.5152
vn -0.7578 0.4474 0.4749
vn -0.7607 0.4266 0.4891
vn -0.7672 0.3492 0.5379
vn 0.5832 0.3295 0.7425
vn 0.5856 0.3270 0.7417
vn 0.5839 0.3288 0.7423
vn 0.5780 0.3349 0.7441
vn 0.9488 0.2417 -0.2032
vn 0.9481 0.2344 -0.2148
vn 0.9494 0.2490 -0.1915
vn 0.9499 0.2628 -0.1691
vn 0.1961 0.9156 0.3509
vn 0.2326 0.9344 0.2699
vn 0.2131 0.9252 0.3141
vn 0.1404 0.8749 0.4635
vn -0.8918 0.3506 0.2860
vn -0.8973 0.3179 0.3062
vn -0.8947 0.3344 0.2961
vn -0.8887 0.3659 0.2762
vn 0.5799 0.3866 0.7171
vn 0.5392 0.4474 0.7136
vn 0.5536 0.4266 0.7152
vn 0.6028 0.3492 0.7174
vn 0.6888 0.3295 -0.6457
vn 0.6878 0.3270 -0.6480
vn 0.6885 0.3288 -0.6464
vn 0.6909 0.3348 -0.6407
vn -0.2852 0.2417 -0.9275
vn -0.2966 0.2344 -0.9258
vn -0.2736 0.2490 -0.9291
vn -0.2513 0.2628 -0.9316
vn 0.3802 0.8648 -0.3280
vn 0.3610 0.8706 -0.3343
vn 0.3742 0.8667 -0.3300
vn 0.3984 0.8589 -0.3218
vn -0.3706 -0.0116 -0.9287
vn -0.3912 -0.0249 -0.9200
vn -0.3556 -0.0020 -0.9346
vn -0.3176 0.0219 -0.9480
vn -0.7507 0.0762 0.6562
vn -0.7635 0.0870 0.6399
vn -0.7373 0.0651 0.6725
vn -0.7208 0.0520 0.6912
vn 0.6907 0.2155 0.6903
vn 0.6532 0.2462 0.7160
vn 0.7247 0.1855 0.6636
vn 0.7543 0.1573 0.6374
vn 0.7920 0.1104 -0.6004
vn 0.8029 0.1240 -0.5831
vn 0.7766 0.0919 -0.6233
vn 0.7596 0.0726 -0.6463
vn -0.3920 0.9156 -0.0890
vn -0.3562 0.9344 -0.0077
vn -0.3760 0.9252 -0.0518
vn -0.4383 0.8749 -0.2058
vn 0.3842 0.3506 -0.8541
vn 0.3729 0.3179 -0.8717
vn 0.3787 0.3344 -0.8630
vn 0.3894 0.3659 -0.8453
vn -0.9210 0.3866 -0.0489
vn -0.8911 0.4474 -0.0768
vn -0.9019 0.4266 -0.0672
vn -0.9365 0.3492 -0.0321
vn 0.0189 0.3295 0.9440
vn 0.0213 0.3270 0.9448
vn 0.0196 0.3288 0.9442
vn 0.0138 0.3348 0.9422
vn 0.8801 0.2417 0.4087
vn 0.8865 0.2344 0.3990
vn 0.8735 0.2490 0.4184
vn 0.8604 0.2628 0.4366
vn -0.0546 0.9156 0.3983
vn 0.0233 0.9344 0.3555
vn -0.0188 0.9252 0.3791
vn -0.1668 0.8749 0.4546
vn -0.8843 0.3506 -0.3083
vn -0.9009 0.3179 -0.2955
vn -0.8927 0.3344 -0.3020
vn -0.8760 0.3659 -0.3143
vn 0.0315 0.3866 0.9217
vn 0.0012 0.4473 0.8944
vn 0.0117 0.4266 0.9044
vn 0.0496 0.3493 0.9357
vn 0.9387 0.3295 -0.1011
vn 0.9393 0.3270 -0.1036
vn 0.9389 0.3288 -0.1018
vn 0.9374 0.3349 -0.0959
vn 0.3305 0.2417 -0.9123
vn 0.3203 0.2344 -0.9179
vn 0.3407 0.2490 -0.9066
vn 0.3600 0.2628 -0.8952
# 181 vertex normals

vt 0.6180 0.3272 0.0000
vt 0.3838 0.3275 0.0000
vt 0.3849 0.6200 0.0000
vt 0.6105 0.6216 0.0000
vt 0.8613 0.6537 0.0000
vt 0.9913 0.6537 0.0000
vt 0.9913 0.8068 0.0000
vt 0.8613 0.8068 0.0000
vt 0.7424 0.6537 0.0000
vt 0.7423 0.8068 0.0000
vt 0.3386 0.8751 0.0000
vt 0.2269 0.8703 0.0000
vt 0.2266 0.7587 0.0000
vt 0.3386 0.7530 0.0000
vt 0.4578 0.7644 0.0000
vt 0.4578 0.8751 0.0000
vt 0.4578 0.9836 0.0000
vt 0.3386 0.9933 0.0000
vt 0.2236 0.9819 0.0000
vt 0.8632 0.8185 0.0000
vt 0.7409 0.8185 0.0000
vt 0.7409 0.9930 0.0000
vt 0.8632 0.9930 0.0000
vt 0.9854 0.8185 0.0000
vt 0.9854 0.9930 0.0000
vt 0.9881 0.6526 0.0000
vt 0.7382 0.6526 0.0000
vt 0.7382 0.8063 0.0000
vt 0.9881 0.8063 0.0000
vt 0.2683 0.0061 0.0000
vt 0.4128 0.0255 0.0000
vt 0.4108 0.2906 0.0000
vt 0.1534 0.0191 0.0000
vt 0.2977 0.3012 0.0000
vt 0.1523 0.2851 0.0000
vt 0.7465 0.9325 0.0000
vt 0.7465 0.8754 0.0000
vt 0.9844 0.8754 0.0000
vt 0.7465 0.9920 0.0000
vt 0.9844 0.9920 0.0000
vt 0.7465 0.9399 0.0000
vt 0.3783 0.3231 0.0000
vt 0.6139 0.3231 0.0000
vt 0.6139 0.6210 0.0000
vt 0.3783 0.6210 0.0000
vt 0.4022 0.4902 0.0000
vt 0.4154 0.3497 0.0000
vt 0.5898 0.3507 0.0000
vt 0.4103 0.6019 0.0000
vt 0.5965 0.4606 0.0000
vt 0.5854 0.6021 0.0000
vt 0.7383 0.6603 0.0000
vt 0.9975 0.6605 0.0000
vt 0.9970 0.8320 0.0000
vt 0.7385 0.8333 0.0000
vt 0.0005 0.3266 0.0000
vt 0.1372 0.3266 0.0000
vt 0.1354 0.4415 0.0000
vt 0.0071 0.4415 0.0000
vt 0.0053 0.3218 0.0000
vt 0.1372 0.3218 0.0000
vt 0.1354 0.4439 0.0000
vt 0.0120 0.4439 0.0000
# 63 texture coords

g Mesh01
usemtl Material__28
s 1
f 1/1/1 2/2/2 3/3/3 
f 3/3/3 4/4/4 1/1/1 
f 5/5/5 6/6/6 7/7/7 
f 5/5/5 7/7/7 8/8/8 
f 9/9/9 5/5/5 8/8/8 
f 9/9/9 8/8/8 10/10/10 
f 11/11/11 8/12/12 7/13/13 
f 11/11/11 7/13/13 12/14/14 
f 11/11/11 12/14/14 13/15/15 
f 11/11/11 13/15/15 14/16/16 
f 11/11/11 14/16/16 15/17/17 
f 11/11/11 15/17/17 16/18/18 
f 11/11/11 16/18/18 10/19/19 
f 11/11/11 10/19/19 8/12/12 
f 17/20/20 9/21/21 10/22/22 
f 17/20/20 10/22/22 16/23/23 
f 18/24/24 17/20/20 16/23/23 
f 18/24/24 16/23/23 15/25/25 
f 19/20/26 20/24/27 13/25/28 
f 19/20/26 13/25/28 12/23/29 
f 6/21/30 19/20/26 12/23/29 
f 6/21/30 12/23/29 7/22/31 
f 21/26/32 18/27/33 15/28/34 
f 21/26/32 15/28/34 14/29/35 
f 20/27/36 21/26/32 14/29/35 
f 20/27/36 14/29/35 13/28/37 
f 22/30/38 23/31/39 24/32/40 
f 3/33/41 22/30/38 24/32/40 
f 24/32/40 25/34/42 3/33/41 
f 25/34/42 4/35/43 3/33/41 
f 26/36/44 27/37/45 28/38/46 
f 29/39/47 26/36/44 28/38/46 
f 28/38/46 30/40/48 29/39/47 
f 31/40/49 32/38/50 33/37/51 
f 33/37/51 34/41/52 31/40/49 
f 34/41/52 35/39/53 31/40/49 
f 2/38/54 36/40/55 23/39/56 
f 23/39/56 22/36/57 2/38/54 
f 22/36/57 3/37/58 2/38/54 
f 37/40/59 1/38/60 4/37/61 
f 4/37/61 25/41/62 37/40/59 
f 25/41/62 24/39/63 37/40/59 
f 36/42/64 37/43/65 24/44/66 
f 24/44/66 23/45/67 36/42/64 
f 26/46/68 29/47/69 35/48/70 
f 27/49/71 26/46/68 35/48/70 
f 35/48/70 34/50/72 27/49/71 
f 34/50/72 33/51/73 27/49/71 
f 32/1/74 28/2/75 27/3/76 
f 27/3/76 33/4/77 32/1/74 
f 30/42/78 31/43/79 35/44/80 
f 35/44/80 29/45/81 30/42/78 
f 38/52/82 39/53/83 40/54/84 
f 40/54/84 41/55/85 38/52/82 
f 42/56/86 43/57/87 39/58/88 
f 39/58/88 38/59/89 42/56/86 
f 43/56/90 44/57/91 40/58/92 
f 40/58/92 39/59/93 43/56/90 
f 44/56/94 45/57/95 41/58/96 
f 41/58/96 40/59/97 44/56/94 
f 45/56/98 42/57/99 38/58/100 
f 38/58/100 41/59/101 45/56/98 
f 46/52/102 47/53/103 48/54/104 
f 48/54/104 49/55/105 46/52/102 
f 50/56/106 51/57/107 47/58/108 
f 47/58/108 46/59/109 50/56/106 
f 51/56/110 52/57/111 48/58/112 
f 48/58/112 47/59/113 51/56/110 
f 52/56/114 53/57/115 49/58/116 
f 49/58/116 48/59/117 52/56/114 
f 53/56/118 50/57/119 46/58/120 
f 46/58/120 49/59/121 53/56/118 
f 54/52/122 55/53/123 56/54/124 
f 56/54/124 57/55/125 54/52/122 
f 58/60/126 59/61/127 55/62/128 
f 55/62/128 54/63/129 58/60/126 
f 59/60/130 60/61/131 56/62/132 
f 56/62/132 55/63/133 59/60/130 
f 60/60/134 61/61/135 57/62/136 
f 57/62/136 56/63/137 60/60/134 
f 61/60/138 58/61/139 54/62/140 
f 54/62/140 57/63/141 61/60/138 
f 62/52/142 63/53/143 64/54/144 
f 64/54/144 65/55/145 62/52/142 
f 66/56/146 67/57/147 63/58/148 
f 63/58/148 62/59/149 66/56/146 
f 67/56/150 68/57/151 64/58/152 
f 64/58/152 63/59/153 67/56/150 
f 68/56/154 69/57/155 65/58/156 
f 65/58/156 64/59/157 68/56/154 
f 69/56/158 66/57/159 62/58/160 
f 62/58/160 65/59/161 69/56/158 
f 70/52/162 71/53/163 72/54/164 
f 72/54/164 73/55/165 70/52/162 
f 74/56/166 75/57/167 71/58/168 
f 71/58/168 70/59/169 74/56/166 
f 75/56/170 76/57/171 72/58/172 
f 72/58/172 71/59/173 75/56/170 
f 76/56/174 77/57/175 73/58/176 
f 73/58/176 72/59/177 76/56/174 
f 77/56/178 74/57/179 70/58/180 
f 70/58/180 73/59/181 77/56/178 
# 0 polygons - 102 triangles

